<?xml version="1.0" encoding="UTF-8"?>
<svg xmlns="http://www.w3.org/2000/svg" xmlns:xlink="http://www.w3.org/1999/xlink" width="595.276pt" height="297.638pt" viewBox="0 0 595.276 297.638" version="1.1">
<g id="surface1">
<path style=" stroke:none;fill-rule:nonzero;fill:rgb(13.729858%,12.159729%,12.548828%);fill-opacity:1;" d="M 204.097656 189.5625 C 196.546875 189.5625 194.945312 185.230469 194.945312 180.597656 L 194.945312 163.976562 L 198.828125 163.976562 L 198.828125 180.296875 C 198.828125 183.660156 199.898438 186.199219 204.347656 186.199219 C 208.265625 186.199219 210.046875 184.480469 210.046875 179.777344 L 210.046875 163.976562 L 213.859375 163.976562 L 213.859375 179.476562 C 213.859375 186.199219 210.402344 189.5625 204.097656 189.5625 "/>
<path style=" stroke:none;fill-rule:nonzero;fill:rgb(13.729858%,12.159729%,12.548828%);fill-opacity:1;" d="M 231.15625 189.1875 L 231.15625 178.121094 C 231.15625 175.976562 230.570312 174.734375 228.597656 174.734375 C 226.003906 174.734375 224.101562 177.464844 224.101562 180.890625 L 224.101562 189.1875 L 220.402344 189.1875 L 220.402344 172.003906 L 223.929688 172.003906 C 223.929688 172.902344 223.859375 174.386719 223.6875 175.355469 L 223.722656 175.390625 C 224.726562 173.179688 226.800781 171.65625 229.707031 171.65625 C 233.613281 171.65625 234.820312 174.109375 234.820312 177.152344 L 234.820312 189.1875 Z M 231.15625 189.1875 "/>
<path style=" stroke:none;fill-rule:nonzero;fill:rgb(13.729858%,12.159729%,12.548828%);fill-opacity:1;" d="M 241.253906 172.003906 L 244.953125 172.003906 L 244.953125 189.1875 L 241.253906 189.1875 Z M 243.121094 169.441406 C 241.808594 169.441406 240.734375 168.40625 240.734375 167.125 C 240.734375 165.847656 241.808594 164.808594 243.121094 164.808594 C 244.402344 164.808594 245.472656 165.8125 245.472656 167.125 C 245.472656 168.40625 244.402344 169.441406 243.121094 169.441406 "/>
<path style=" stroke:none;fill-rule:nonzero;fill:rgb(13.729858%,12.159729%,12.548828%);fill-opacity:1;" d="M 259.097656 189.1875 L 255.328125 189.1875 L 248.894531 172.003906 L 252.976562 172.003906 L 256.191406 181.097656 C 256.605469 182.273438 256.988281 183.480469 257.296875 184.621094 L 257.332031 184.621094 C 257.609375 183.550781 257.957031 182.339844 258.335938 181.234375 L 261.621094 172.003906 L 265.597656 172.003906 Z M 259.097656 189.1875 "/>
<path style=" stroke:none;fill-rule:nonzero;fill:rgb(13.729858%,12.159729%,12.548828%);fill-opacity:1;" d="M 275.867188 174.386719 C 273.792969 174.386719 272.339844 175.910156 272.03125 178.226562 L 279.324219 178.226562 C 279.394531 175.875 278.046875 174.386719 275.867188 174.386719 M 282.921875 180.820312 L 271.960938 180.820312 C 271.855469 184.796875 273.621094 186.59375 277.042969 186.59375 C 278.808594 186.59375 280.640625 186.179688 282.058594 185.488281 L 282.402344 188.425781 C 280.675781 189.152344 278.566406 189.535156 276.457031 189.535156 C 271.097656 189.535156 268.15625 186.765625 268.15625 180.714844 C 268.15625 175.527344 270.992188 171.65625 276.007812 171.65625 C 280.917969 171.65625 283.027344 175.011719 283.027344 179.089844 C 283.027344 179.574219 282.992188 180.164062 282.921875 180.820312 "/>
<path style=" stroke:none;fill-rule:nonzero;fill:rgb(13.729858%,12.159729%,12.548828%);fill-opacity:1;" d="M 297.03125 175.285156 C 293.609375 174.664062 291.949219 177.050781 291.949219 182.203125 L 291.949219 189.1875 L 288.246094 189.1875 L 288.246094 172 L 291.773438 172 C 291.773438 172.96875 291.671875 174.492188 291.429688 175.804688 L 291.496094 175.804688 C 292.257812 173.488281 293.988281 171.34375 297.203125 171.65625 Z M 297.03125 175.285156 "/>
<path style=" stroke:none;fill-rule:nonzero;fill:rgb(13.729858%,12.159729%,12.548828%);fill-opacity:1;" d="M 304.394531 189.535156 C 303.117188 189.535156 301.835938 189.394531 300.765625 189.1875 L 300.871094 186.039062 C 301.941406 186.351562 303.289062 186.59375 304.601562 186.59375 C 306.609375 186.59375 307.992188 185.730469 307.992188 184.3125 C 307.992188 180.855469 300.453125 182.929688 300.453125 176.980469 C 300.453125 174.007812 302.875 171.65625 307.542969 171.65625 C 308.542969 171.65625 309.722656 171.792969 310.757812 171.96875 L 310.65625 174.976562 C 309.617188 174.664062 308.40625 174.492188 307.300781 174.492188 C 305.261719 174.492188 304.257812 175.320312 304.257812 176.636719 C 304.257812 179.957031 311.867188 178.261719 311.867188 183.96875 C 311.867188 187.183594 308.996094 189.535156 304.394531 189.535156 "/>
<path style=" stroke:none;fill-rule:nonzero;fill:rgb(13.729858%,12.159729%,12.548828%);fill-opacity:1;" d="M 317.15625 172.003906 L 320.855469 172.003906 L 320.855469 189.1875 L 317.15625 189.1875 Z M 319.023438 169.441406 C 317.710938 169.441406 316.636719 168.40625 316.636719 167.125 C 316.636719 165.847656 317.710938 164.808594 319.023438 164.808594 C 320.304688 164.808594 321.375 165.8125 321.375 167.125 C 321.375 168.40625 320.304688 169.441406 319.023438 169.441406 "/>
<path style=" stroke:none;fill-rule:nonzero;fill:rgb(13.729858%,12.159729%,12.548828%);fill-opacity:1;" d="M 333.476562 189.492188 C 329.8125 189.492188 328.707031 188.105469 328.707031 184.34375 L 328.707031 175.160156 L 325.421875 175.160156 L 325.421875 172.347656 L 328.707031 172.347656 L 328.707031 166.996094 L 332.371094 166.011719 L 332.371094 172.347656 L 336.898438 172.347656 L 336.898438 175.160156 L 332.40625 175.160156 L 332.40625 183.226562 C 332.40625 185.730469 332.921875 186.410156 334.652344 186.410156 C 335.414062 186.410156 336.242188 186.308594 336.898438 186.140625 L 336.898438 189.121094 C 335.898438 189.324219 334.617188 189.492188 333.476562 189.492188 "/>
<path style=" stroke:none;fill-rule:nonzero;fill:rgb(13.729858%,12.159729%,12.548828%);fill-opacity:1;" d="M 351.527344 168.75 C 350.351562 168.75 349.417969 167.816406 349.417969 166.640625 C 349.417969 165.5 350.351562 164.566406 351.527344 164.566406 C 352.667969 164.566406 353.601562 165.5 353.601562 166.640625 C 353.601562 167.816406 352.667969 168.75 351.527344 168.75 M 350.835938 181.40625 C 345.441406 181.40625 344.265625 183.03125 344.265625 184.519531 C 344.265625 185.800781 345.164062 186.628906 346.617188 186.628906 C 349.144531 186.628906 350.835938 184.207031 350.835938 181.753906 Z M 344.714844 168.75 C 343.539062 168.75 342.640625 167.816406 342.640625 166.640625 C 342.640625 165.5 343.539062 164.566406 344.714844 164.566406 C 345.890625 164.566406 346.824219 165.5 346.824219 166.640625 C 346.824219 167.816406 345.890625 168.75 344.714844 168.75 M 351.078125 189.1875 C 351.078125 188.082031 351.113281 186.9375 351.25 186.007812 L 351.214844 185.972656 C 350.386719 188.011719 348.242188 189.535156 345.507812 189.535156 C 342.570312 189.535156 340.707031 187.875 340.707031 185.140625 C 340.707031 181.199219 344.648438 178.917969 350.835938 178.917969 L 350.835938 177.8125 C 350.835938 175.667969 349.9375 174.5625 347.238281 174.5625 C 345.648438 174.5625 343.574219 175.042969 342.121094 175.945312 L 341.777344 172.796875 C 343.472656 172.140625 345.613281 171.65625 347.828125 171.65625 C 353.082031 171.65625 354.535156 173.9375 354.535156 177.464844 L 354.535156 184.484375 C 354.535156 185.972656 354.570312 187.734375 354.640625 189.1875 Z M 351.078125 189.1875 "/>
<path style=" stroke:none;fill-rule:nonzero;fill:rgb(13.729858%,12.159729%,12.548828%);fill-opacity:1;" d="M 366.535156 189.492188 C 362.871094 189.492188 361.765625 188.105469 361.765625 184.34375 L 361.765625 175.160156 L 358.480469 175.160156 L 358.480469 172.347656 L 361.765625 172.347656 L 361.765625 166.996094 L 365.429688 166.011719 L 365.429688 172.347656 L 369.957031 172.347656 L 369.957031 175.160156 L 365.460938 175.160156 L 365.460938 183.226562 C 365.460938 185.730469 365.980469 186.410156 367.710938 186.410156 C 368.472656 186.410156 369.300781 186.308594 369.957031 186.140625 L 369.957031 189.121094 C 368.957031 189.324219 367.675781 189.492188 366.535156 189.492188 "/>
<path style=" stroke:none;fill-rule:nonzero;fill:rgb(13.729858%,12.159729%,12.548828%);fill-opacity:1;" d="M 404.75 189.1875 L 404.75 177.871094 L 393.390625 177.871094 L 393.390625 189.1875 L 389.507812 189.1875 L 389.507812 163.976562 L 393.390625 163.976562 L 393.390625 174.398438 L 404.75 174.398438 L 404.75 163.976562 L 408.597656 163.976562 L 408.597656 189.1875 Z M 404.75 189.1875 "/>
<path style=" stroke:none;fill-rule:nonzero;fill:rgb(13.729858%,12.159729%,12.548828%);fill-opacity:1;" d="M 425.523438 181.40625 C 420.128906 181.40625 418.953125 183.03125 418.953125 184.519531 C 418.953125 185.796875 419.851562 186.628906 421.304688 186.628906 C 423.828125 186.628906 425.523438 184.207031 425.523438 181.753906 Z M 425.765625 189.1875 C 425.765625 188.082031 425.800781 186.941406 425.9375 186.007812 L 425.902344 185.972656 C 425.074219 188.011719 422.929688 189.535156 420.199219 189.535156 C 417.257812 189.535156 415.390625 187.875 415.390625 185.140625 C 415.390625 181.199219 419.332031 178.917969 425.523438 178.917969 L 425.523438 177.8125 C 425.523438 175.667969 424.625 174.5625 421.929688 174.5625 C 420.335938 174.5625 418.261719 175.042969 416.808594 175.945312 L 416.464844 172.796875 C 418.15625 172.140625 420.300781 171.65625 422.515625 171.65625 C 427.769531 171.65625 429.222656 173.9375 429.222656 177.464844 L 429.222656 184.484375 C 429.222656 185.972656 429.257812 187.734375 429.328125 189.1875 Z M 425.765625 189.1875 "/>
<path style=" stroke:none;fill-rule:nonzero;fill:rgb(13.729858%,12.159729%,12.548828%);fill-opacity:1;" d="M 457.199219 189.1875 L 457.199219 178.226562 C 457.199219 176.082031 456.679688 174.734375 454.710938 174.734375 C 452.496094 174.734375 450.285156 177.1875 450.285156 180.957031 L 450.285156 189.1875 L 446.652344 189.1875 L 446.652344 178.191406 C 446.652344 176.253906 446.238281 174.734375 444.164062 174.734375 C 441.8125 174.734375 439.769531 177.359375 439.769531 180.957031 L 439.769531 189.1875 L 436.070312 189.1875 L 436.070312 172.003906 L 439.597656 172.003906 C 439.597656 172.902344 439.527344 174.351562 439.355469 175.355469 L 439.425781 175.390625 C 440.429688 173.109375 442.574219 171.65625 445.234375 171.65625 C 448.621094 171.65625 449.730469 173.835938 450.007812 175.355469 C 450.734375 173.695312 452.632812 171.65625 455.75 171.65625 C 459.035156 171.65625 460.863281 173.421875 460.863281 177.328125 L 460.863281 189.1875 Z M 457.199219 189.1875 "/>
<path style=" stroke:none;fill-rule:nonzero;fill:rgb(13.729858%,12.159729%,12.548828%);fill-opacity:1;" d="M 475.25 174.734375 C 472.484375 174.734375 470.996094 177.949219 470.996094 180.855469 L 470.996094 186.179688 C 471.757812 186.421875 472.621094 186.527344 473.695312 186.527344 C 476.632812 186.527344 478.640625 184.726562 478.640625 180.09375 C 478.640625 176.636719 477.566406 174.734375 475.25 174.734375 M 473.417969 189.464844 C 470.996094 189.464844 469.164062 189.222656 467.292969 188.738281 L 467.292969 163.945312 L 470.996094 163.945312 L 470.996094 171.863281 C 470.996094 172.867188 470.890625 174.25 470.683594 175.148438 L 470.753906 175.148438 C 471.652344 173.003906 473.695312 171.65625 476.21875 171.65625 C 480.300781 171.65625 482.546875 174.558594 482.546875 179.75 C 482.546875 185.695312 479.121094 189.464844 473.417969 189.464844 "/>
<path style=" stroke:none;fill-rule:nonzero;fill:rgb(13.729858%,12.159729%,12.548828%);fill-opacity:1;" d="M 499.210938 189.1875 C 499.210938 188.289062 499.28125 186.800781 499.453125 185.835938 L 499.417969 185.800781 C 498.417969 188.011719 496.339844 189.535156 493.4375 189.535156 C 489.53125 189.535156 488.320312 187.078125 488.320312 184.035156 L 488.320312 172.003906 L 491.984375 172.003906 L 491.984375 183.066406 C 491.984375 185.210938 492.574219 186.457031 494.542969 186.457031 C 497.136719 186.457031 499.042969 183.722656 499.042969 180.300781 L 499.042969 172.003906 L 502.742188 172.003906 L 502.742188 189.1875 Z M 499.210938 189.1875 "/>
<path style=" stroke:none;fill-rule:nonzero;fill:rgb(13.729858%,12.159729%,12.548828%);fill-opacity:1;" d="M 518.992188 175.285156 C 515.570312 174.664062 513.910156 177.050781 513.910156 182.203125 L 513.910156 189.1875 L 510.210938 189.1875 L 510.210938 172 L 513.738281 172 C 513.738281 172.96875 513.632812 174.492188 513.390625 175.804688 L 513.460938 175.804688 C 514.21875 173.488281 515.949219 171.34375 519.164062 171.65625 Z M 518.992188 175.285156 "/>
<path style=" stroke:none;fill-rule:nonzero;fill:rgb(13.729858%,12.159729%,12.548828%);fill-opacity:1;" d="M 531.164062 174.386719 C 528.710938 174.386719 527.257812 175.875 527.257812 177.984375 C 527.257812 180.230469 528.640625 181.546875 531.132812 181.546875 C 533.445312 181.546875 534.96875 180.265625 534.96875 178.019531 C 534.96875 175.738281 533.550781 174.386719 531.164062 174.386719 M 532.894531 189.464844 L 529.679688 189.464844 C 529.367188 189.464844 529.019531 189.464844 528.746094 189.429688 C 527.570312 190.085938 526.84375 191.125 526.84375 192.300781 C 526.84375 194.132812 528.574219 195.171875 531.0625 195.171875 C 534.277344 195.171875 536.078125 193.785156 536.078125 191.917969 C 536.078125 190.433594 535.074219 189.464844 532.894531 189.464844 M 530.472656 198.039062 C 525.980469 198.039062 523.175781 196.308594 523.175781 192.992188 C 523.175781 191.054688 524.457031 189.429688 525.945312 188.667969 C 524.90625 188.148438 524.25 187.25 524.25 186.109375 C 524.25 184.863281 525.007812 183.6875 526.21875 183.171875 C 524.527344 182.238281 523.660156 180.472656 523.660156 178.332031 C 523.660156 174.699219 526.425781 171.65625 531.339844 171.65625 C 532.375 171.65625 533.238281 171.792969 534.171875 172 L 539.984375 172 L 539.984375 174.90625 L 537.355469 174.90625 C 538.082031 175.496094 538.53125 176.53125 538.53125 177.777344 C 538.53125 181.511719 535.9375 184.140625 531.09375 184.140625 C 530.4375 184.140625 529.644531 184.070312 529.125 183.96875 C 528.433594 184.242188 528.121094 184.761719 528.121094 185.246094 C 528.121094 186.109375 528.882812 186.457031 530.957031 186.457031 L 533.898438 186.457031 C 537.632812 186.457031 539.742188 188.21875 539.742188 191.4375 C 539.742188 195.101562 536.003906 198.039062 530.472656 198.039062 "/>
<path style=" stroke:none;fill-rule:nonzero;fill:rgb(92.939758%,10.978699%,14.118958%);fill-opacity:1;" d="M 55.808594 70.277344 L 174.328125 70.277344 L 174.328125 188.796875 L 55.808594 188.796875 Z M 55.808594 70.277344 "/>
<path style=" stroke:none;fill-rule:nonzero;fill:rgb(100%,100%,100%);fill-opacity:1;" d="M 132 140.527344 L 133.695312 140.527344 L 132.847656 139.0625 L 133.695312 137.597656 L 132 137.597656 L 131.15625 136.132812 L 130.308594 137.597656 L 128.617188 137.597656 L 129.460938 139.0625 L 128.617188 140.527344 L 130.308594 140.527344 L 131.15625 141.996094 Z M 132 140.527344 "/>
<path style=" stroke:none;fill-rule:nonzero;fill:rgb(100%,100%,100%);fill-opacity:1;" d="M 158.496094 140.527344 L 160.1875 140.527344 L 159.34375 139.0625 L 160.1875 137.597656 L 158.496094 137.597656 L 157.652344 136.132812 L 156.804688 137.597656 L 155.109375 137.597656 L 155.957031 139.0625 L 155.109375 140.527344 L 156.804688 140.527344 L 157.652344 141.996094 Z M 158.496094 140.527344 "/>
<path style=" stroke:none;fill-rule:nonzero;fill:rgb(100%,100%,100%);fill-opacity:1;" d="M 139.75 141.207031 L 139.75 141.523438 L 137.894531 141.523438 L 137.894531 143.6875 L 139.984375 143.6875 L 139.984375 157.214844 L 135.167969 157.214844 L 135.167969 143.992188 L 127.140625 143.992188 L 127.140625 157.214844 L 124.519531 157.214844 L 124.519531 159.460938 L 164.289062 159.460938 L 164.289062 157.214844 L 161.664062 157.214844 L 161.664062 143.992188 L 153.636719 143.992188 L 153.636719 157.214844 L 148.820312 157.214844 L 148.820312 143.6875 L 150.910156 143.6875 L 150.910156 141.523438 L 149.058594 141.523438 C 148.9375 139.195312 147.78125 137.203125 145.351562 136.667969 L 145.351562 134.328125 L 147.089844 134.328125 L 147.089844 132.703125 L 145.351562 132.703125 L 145.351562 130.71875 L 143.453125 130.71875 L 143.453125 132.703125 L 141.714844 132.703125 L 141.714844 134.328125 L 143.453125 134.328125 L 143.453125 136.671875 C 141.308594 137.171875 139.75 138.949219 139.75 141.207031 "/>
<path style=" stroke:none;fill-rule:nonzero;fill:rgb(100%,100%,100%);fill-opacity:1;" d="M 144.402344 168.742188 C 141.472656 168.742188 139.09375 171.117188 139.09375 174.050781 L 139 182.9375 L 122.3125 182.9375 C 124.789062 176.054688 126.4375 169.125 126.949219 161.78125 L 161.855469 161.78125 C 162.367188 169.125 164.015625 176.054688 166.492188 182.9375 L 149.804688 182.9375 L 149.710938 174.050781 C 149.710938 171.117188 147.335938 168.742188 144.402344 168.742188 "/>
<path style=" stroke:none;fill-rule:nonzero;fill:rgb(100%,100%,100%);fill-opacity:1;" d="M 107.410156 108.980469 L 102.65625 108.980469 L 102.65625 95.640625 L 88.757812 95.640625 L 88.757812 98.722656 C 88.757812 105.410156 84.800781 109.417969 77.070312 109.417969 C 69.132812 109.417969 65.382812 105.726562 65.382812 98.855469 L 65.382812 79.265625 L 70.183594 79.265625 L 70.183594 97.886719 C 70.183594 102.671875 71.851562 105.457031 77.117188 105.457031 C 82.296875 105.457031 84.050781 102.671875 84.050781 97.886719 L 84.050781 79.265625 L 88.757812 79.265625 L 88.757812 91.546875 L 102.65625 91.546875 L 102.65625 79.265625 L 107.410156 79.265625 L 107.410156 91.546875 L 121.394531 91.546875 L 121.394531 79.265625 L 126.148438 79.265625 L 126.148438 108.980469 L 121.394531 108.980469 L 121.394531 95.640625 L 107.410156 95.640625 Z M 107.410156 108.980469 "/>
<path style=" stroke:none;fill-rule:nonzero;fill:rgb(13.729858%,12.159729%,12.548828%);fill-opacity:1;" d="M 59.964844 212.761719 C 59.292969 212.761719 58.667969 212.785156 58.195312 212.832031 L 58.195312 223 C 58.601562 223.066406 59.203125 223.109375 59.785156 223.109375 C 62.621094 223.109375 64.679688 221.503906 64.679688 217.925781 C 64.679688 214.683594 63.40625 212.761719 59.964844 212.761719 M 59.492188 225.589844 C 57.929688 225.589844 56.566406 225.523438 55.292969 225.480469 L 55.292969 210.4375 C 56.476562 210.394531 58.308594 210.324219 60.164062 210.324219 C 64.835938 210.324219 67.808594 212.40625 67.808594 217.703125 C 67.808594 222.886719 64.410156 225.589844 59.492188 225.589844 "/>
<path style=" stroke:none;fill-rule:nonzero;fill:rgb(13.729858%,12.159729%,12.548828%);fill-opacity:1;" d="M 70.425781 225.503906 L 70.425781 210.414062 L 78.628906 210.414062 L 78.628906 212.851562 L 73.332031 212.851562 L 73.332031 216.5625 L 78.359375 216.5625 L 78.359375 218.933594 L 73.332031 218.933594 L 73.332031 223.019531 L 78.628906 223.019531 L 78.628906 225.503906 Z M 70.425781 225.503906 "/>
<path style=" stroke:none;fill-rule:nonzero;fill:rgb(13.729858%,12.159729%,12.548828%);fill-opacity:1;" d="M 85.714844 212.695312 C 85.289062 212.695312 84.863281 212.71875 84.574219 212.761719 L 84.574219 217.121094 C 84.777344 217.144531 85.175781 217.164062 85.625 217.164062 C 87.367188 217.164062 88.441406 216.269531 88.441406 214.863281 C 88.441406 213.410156 87.546875 212.695312 85.714844 212.695312 M 88.890625 225.503906 L 84.6875 219.265625 L 84.574219 219.265625 L 84.574219 225.503906 L 81.667969 225.503906 L 81.667969 210.414062 C 82.855469 210.347656 84.261719 210.328125 86.003906 210.328125 C 89.335938 210.328125 91.480469 211.488281 91.480469 214.574219 C 91.480469 216.808594 89.914062 218.417969 87.636719 218.777344 C 88.0625 219.332031 88.484375 219.914062 88.867188 220.429688 L 92.488281 225.503906 Z M 88.890625 225.503906 "/>
<path style=" stroke:none;fill-rule:nonzero;fill:rgb(13.729858%,12.159729%,12.548828%);fill-opacity:1;" d="M 105.898438 212.9375 L 105.898438 216.808594 L 110.746094 216.808594 L 110.746094 219.1875 L 105.898438 219.1875 L 105.898438 225.503906 L 103.007812 225.503906 L 103.007812 210.492188 L 111.035156 210.492188 L 111.035156 212.9375 Z M 105.898438 212.9375 "/>
<path style=" stroke:none;fill-rule:nonzero;fill:rgb(13.729858%,12.159729%,12.548828%);fill-opacity:1;" d="M 119.859375 212.847656 C 117.792969 212.847656 115.878906 214.496094 115.878906 217.875 C 115.878906 221.054688 117.125 223.121094 119.816406 223.121094 C 121.773438 223.121094 123.863281 221.609375 123.863281 218.007812 C 123.863281 214.671875 122.441406 212.847656 119.859375 212.847656 M 119.617188 225.746094 C 115.035156 225.746094 112.789062 222.835938 112.789062 218.1875 C 112.789062 213.226562 116.101562 210.246094 120.128906 210.246094 C 124.128906 210.246094 126.953125 212.648438 126.953125 217.785156 C 126.953125 222.746094 123.683594 225.746094 119.617188 225.746094 "/>
<path style=" stroke:none;fill-rule:nonzero;fill:rgb(13.729858%,12.159729%,12.548828%);fill-opacity:1;" d="M 133.597656 212.761719 C 133.175781 212.761719 132.753906 212.78125 132.464844 212.828125 L 132.464844 217.164062 C 132.664062 217.1875 133.0625 217.207031 133.507812 217.207031 C 135.242188 217.207031 136.308594 216.320312 136.308594 214.917969 C 136.308594 213.472656 135.421875 212.761719 133.597656 212.761719 M 136.753906 225.503906 L 132.574219 219.296875 L 132.464844 219.296875 L 132.464844 225.503906 L 129.574219 225.503906 L 129.574219 210.492188 C 130.753906 210.425781 132.152344 210.402344 133.886719 210.402344 C 137.199219 210.402344 139.335938 211.5625 139.335938 214.628906 C 139.335938 216.851562 137.777344 218.453125 135.511719 218.808594 C 135.933594 219.363281 136.355469 219.945312 136.734375 220.453125 L 140.335938 225.503906 Z M 136.753906 225.503906 "/>
<path style=" stroke:none;fill-rule:nonzero;fill:rgb(13.729858%,12.159729%,12.548828%);fill-opacity:1;" d="M 145.246094 225.746094 C 144.179688 225.746094 143.109375 225.636719 142.175781 225.390625 L 142.355469 222.703125 C 143.199219 222.988281 144.402344 223.234375 145.488281 223.234375 C 146.957031 223.234375 148.089844 222.632812 148.089844 221.253906 C 148.089844 218.386719 141.796875 219.699219 141.796875 214.761719 C 141.796875 212.09375 143.910156 210.246094 147.511719 210.246094 C 148.359375 210.246094 149.335938 210.359375 150.226562 210.515625 L 150.070312 213.050781 C 149.226562 212.804688 148.292969 212.648438 147.378906 212.648438 C 145.710938 212.648438 144.867188 213.40625 144.867188 214.472656 C 144.867188 217.164062 151.183594 216.164062 151.183594 220.855469 C 151.183594 223.675781 148.9375 225.746094 145.246094 225.746094 "/>
<path style=" stroke:none;fill-rule:nonzero;fill:rgb(13.729858%,12.159729%,12.548828%);fill-opacity:1;" d="M 160.207031 225.703125 C 154.957031 225.703125 153.269531 222.210938 153.269531 218.476562 C 153.269531 213.714844 155.757812 210.382812 160.785156 210.382812 C 161.851562 210.382812 162.988281 210.515625 163.964844 210.78125 L 163.652344 213.40625 C 162.675781 213.117188 161.652344 212.960938 160.628906 212.960938 C 157.828125 212.960938 156.449219 215.074219 156.449219 217.984375 C 156.449219 221.253906 157.804688 223.078125 160.828125 223.078125 C 161.742188 223.078125 162.964844 222.8125 163.742188 222.457031 L 164.074219 225.035156 C 162.964844 225.433594 161.609375 225.703125 160.207031 225.703125 "/>
<path style=" stroke:none;fill-rule:nonzero;fill:rgb(13.729858%,12.159729%,12.548828%);fill-opacity:1;" d="M 176.300781 225.503906 L 176.300781 218.988281 L 169.941406 218.988281 L 169.941406 225.503906 L 167.050781 225.503906 L 167.050781 210.492188 L 169.941406 210.492188 L 169.941406 216.496094 L 176.300781 216.496094 L 176.300781 210.492188 L 179.191406 210.492188 L 179.191406 225.503906 Z M 176.300781 225.503906 "/>
<path style=" stroke:none;fill-rule:nonzero;fill:rgb(13.729858%,12.159729%,12.548828%);fill-opacity:1;" d="M 188.839844 225.746094 C 184.101562 225.746094 183.035156 223.167969 183.035156 220.296875 L 183.035156 210.492188 L 185.925781 210.492188 L 185.925781 220.121094 C 185.925781 222.011719 186.546875 223.34375 189.039062 223.34375 C 191.261719 223.34375 192.195312 222.410156 192.195312 219.855469 L 192.195312 210.492188 L 195.066406 210.492188 L 195.066406 219.675781 C 195.066406 223.789062 192.796875 225.746094 188.839844 225.746094 "/>
<path style=" stroke:none;fill-rule:nonzero;fill:rgb(13.729858%,12.159729%,12.548828%);fill-opacity:1;" d="M 207.511719 225.503906 L 203.109375 217.917969 C 202.441406 216.785156 201.929688 215.675781 201.484375 214.695312 C 201.574219 215.984375 201.617188 218.339844 201.617188 220.144531 L 201.617188 225.503906 L 198.816406 225.503906 L 198.816406 210.492188 L 202.574219 210.492188 L 206.753906 217.652344 C 207.445312 218.808594 208.046875 220.054688 208.601562 221.1875 C 208.488281 219.675781 208.445312 217.007812 208.445312 215.164062 L 208.445312 210.492188 L 211.246094 210.492188 L 211.246094 225.503906 Z M 207.511719 225.503906 "/>
<path style=" stroke:none;fill-rule:nonzero;fill:rgb(13.729858%,12.159729%,12.548828%);fill-opacity:1;" d="M 226.140625 213.605469 C 224.941406 213.136719 223.5625 212.847656 222.160156 212.847656 C 219.203125 212.847656 217.070312 214.71875 217.070312 218.074219 C 217.070312 221.253906 218.804688 223.121094 221.851562 223.121094 C 222.5625 223.121094 223.183594 223.035156 223.761719 222.855469 L 223.761719 217.628906 L 226.652344 217.628906 L 226.652344 224.789062 C 225.164062 225.390625 223.316406 225.722656 221.515625 225.722656 C 216.757812 225.722656 213.933594 222.921875 213.933594 218.339844 C 213.933594 213.628906 217.136719 210.269531 222.339844 210.269531 C 223.828125 210.269531 225.296875 210.539062 226.585938 210.914062 Z M 226.140625 213.605469 "/>
<path style=" stroke:none;fill-rule:nonzero;fill:rgb(13.729858%,12.159729%,12.548828%);fill-opacity:1;" d="M 243.101562 209.929688 L 245.15625 209.929688 L 245.15625 227.359375 L 243.101562 227.359375 Z M 243.101562 209.929688 "/>
<path style=" stroke:none;fill-rule:nonzero;fill:rgb(13.729858%,12.159729%,12.548828%);fill-opacity:1;" d="M 266.03125 212.828125 C 265.363281 212.828125 264.742188 212.847656 264.273438 212.894531 L 264.273438 223.011719 C 264.671875 223.078125 265.273438 223.121094 265.851562 223.121094 C 268.675781 223.121094 270.722656 221.519531 270.722656 217.964844 C 270.722656 214.738281 269.453125 212.828125 266.03125 212.828125 M 265.5625 225.589844 C 264.007812 225.589844 262.648438 225.523438 261.382812 225.480469 L 261.382812 210.515625 C 262.5625 210.46875 264.386719 210.402344 266.230469 210.402344 C 270.875 210.402344 273.835938 212.472656 273.835938 217.742188 C 273.835938 222.902344 270.453125 225.589844 265.5625 225.589844 "/>
<path style=" stroke:none;fill-rule:nonzero;fill:rgb(13.729858%,12.159729%,12.548828%);fill-opacity:1;" d="M 276.433594 225.503906 L 276.433594 210.492188 L 284.59375 210.492188 L 284.59375 212.917969 L 279.324219 212.917969 L 279.324219 216.609375 L 284.328125 216.609375 L 284.328125 218.964844 L 279.324219 218.964844 L 279.324219 223.03125 L 284.59375 223.03125 L 284.59375 225.503906 Z M 276.433594 225.503906 "/>
<path style=" stroke:none;fill-rule:nonzero;fill:rgb(13.729858%,12.159729%,12.548828%);fill-opacity:1;" d="M 291.640625 212.761719 C 291.21875 212.761719 290.792969 212.78125 290.503906 212.828125 L 290.503906 217.164062 C 290.703125 217.1875 291.105469 217.207031 291.550781 217.207031 C 293.285156 217.207031 294.351562 216.320312 294.351562 214.917969 C 294.351562 213.472656 293.460938 212.761719 291.640625 212.761719 M 294.796875 225.503906 L 290.613281 219.296875 L 290.503906 219.296875 L 290.503906 225.503906 L 287.613281 225.503906 L 287.613281 210.492188 C 288.792969 210.425781 290.195312 210.402344 291.929688 210.402344 C 295.242188 210.402344 297.375 211.5625 297.375 214.628906 C 297.375 216.851562 295.820312 218.453125 293.550781 218.808594 C 293.972656 219.363281 294.394531 219.945312 294.773438 220.453125 L 298.375 225.503906 Z M 294.796875 225.503906 "/>
<path style=" stroke:none;fill-rule:nonzero;fill:rgb(13.729858%,12.159729%,12.548828%);fill-opacity:1;" d="M 308.84375 225.503906 L 308.84375 210.492188 L 311.734375 210.492188 L 311.734375 222.96875 L 316.601562 222.96875 L 316.601562 225.503906 Z M 308.84375 225.503906 "/>
<path style=" stroke:none;fill-rule:nonzero;fill:rgb(13.729858%,12.159729%,12.548828%);fill-opacity:1;" d="M 318.714844 225.503906 L 318.714844 210.492188 L 326.875 210.492188 L 326.875 212.917969 L 321.605469 212.917969 L 321.605469 216.609375 L 326.609375 216.609375 L 326.609375 218.964844 L 321.605469 218.964844 L 321.605469 223.03125 L 326.875 223.03125 L 326.875 225.503906 Z M 318.714844 225.503906 "/>
<path style=" stroke:none;fill-rule:nonzero;fill:rgb(13.729858%,12.159729%,12.548828%);fill-opacity:1;" d="M 339.257812 225.503906 L 339.257812 218.988281 L 332.898438 218.988281 L 332.898438 225.503906 L 330.007812 225.503906 L 330.007812 210.492188 L 332.898438 210.492188 L 332.898438 216.496094 L 339.257812 216.496094 L 339.257812 210.492188 L 342.148438 210.492188 L 342.148438 225.503906 Z M 339.257812 225.503906 "/>
<path style=" stroke:none;fill-rule:nonzero;fill:rgb(13.729858%,12.159729%,12.548828%);fill-opacity:1;" d="M 350.058594 212.761719 C 349.636719 212.761719 349.214844 212.78125 348.925781 212.828125 L 348.925781 217.164062 C 349.125 217.1875 349.523438 217.207031 349.96875 217.207031 C 351.703125 217.207031 352.773438 216.320312 352.773438 214.917969 C 352.773438 213.472656 351.882812 212.761719 350.058594 212.761719 M 353.214844 225.503906 L 349.035156 219.296875 L 348.925781 219.296875 L 348.925781 225.503906 L 346.035156 225.503906 L 346.035156 210.492188 C 347.210938 210.425781 348.613281 210.402344 350.347656 210.402344 C 353.664062 210.402344 355.796875 211.5625 355.796875 214.628906 C 355.796875 216.851562 354.238281 218.453125 351.972656 218.808594 C 352.394531 219.363281 352.816406 219.945312 353.195312 220.453125 L 356.796875 225.503906 Z M 353.214844 225.503906 "/>
<path style=" stroke:none;fill-rule:nonzero;fill:rgb(13.729858%,12.159729%,12.548828%);fill-opacity:1;" d="M 359.128906 225.503906 L 359.128906 210.492188 L 367.289062 210.492188 L 367.289062 212.917969 L 362.019531 212.917969 L 362.019531 216.609375 L 367.019531 216.609375 L 367.019531 218.964844 L 362.019531 218.964844 L 362.019531 223.03125 L 367.289062 223.03125 L 367.289062 225.503906 Z M 359.128906 225.503906 "/>
<path style=" stroke:none;fill-rule:nonzero;fill:rgb(13.729858%,12.159729%,12.548828%);fill-opacity:1;" d="M 383.492188 209.929688 L 385.546875 209.929688 L 385.546875 227.359375 L 383.492188 227.359375 Z M 383.492188 209.929688 "/>
<path style=" stroke:none;fill-rule:nonzero;fill:rgb(13.729858%,12.159729%,12.548828%);fill-opacity:1;" d="M 406.003906 212.828125 C 405.335938 212.828125 404.710938 212.847656 404.246094 212.894531 L 404.246094 223.011719 C 404.644531 223.078125 405.246094 223.121094 405.824219 223.121094 C 408.648438 223.121094 410.695312 221.519531 410.695312 217.964844 C 410.695312 214.738281 409.425781 212.828125 406.003906 212.828125 M 405.535156 225.589844 C 403.980469 225.589844 402.625 225.523438 401.355469 225.480469 L 401.355469 210.515625 C 402.535156 210.46875 404.359375 210.402344 406.203125 210.402344 C 410.847656 210.402344 413.808594 212.472656 413.808594 217.742188 C 413.808594 222.902344 410.425781 225.589844 405.535156 225.589844 "/>
<path style=" stroke:none;fill-rule:nonzero;fill:rgb(13.729858%,12.159729%,12.548828%);fill-opacity:1;" d="M 416.402344 225.503906 L 416.402344 210.492188 L 424.5625 210.492188 L 424.5625 212.917969 L 419.292969 212.917969 L 419.292969 216.609375 L 424.296875 216.609375 L 424.296875 218.964844 L 419.292969 218.964844 L 419.292969 223.03125 L 424.5625 223.03125 L 424.5625 225.503906 Z M 416.402344 225.503906 "/>
<path style=" stroke:none;fill-rule:nonzero;fill:rgb(13.729858%,12.159729%,12.548828%);fill-opacity:1;" d="M 431.613281 212.761719 C 431.1875 212.761719 430.765625 212.78125 430.476562 212.828125 L 430.476562 217.164062 C 430.675781 217.1875 431.078125 217.207031 431.523438 217.207031 C 433.257812 217.207031 434.324219 216.320312 434.324219 214.917969 C 434.324219 213.472656 433.433594 212.761719 431.613281 212.761719 M 434.769531 225.503906 L 430.589844 219.296875 L 430.476562 219.296875 L 430.476562 225.503906 L 427.585938 225.503906 L 427.585938 210.492188 C 428.765625 210.425781 430.164062 210.402344 431.898438 210.402344 C 435.214844 210.402344 437.347656 211.5625 437.347656 214.628906 C 437.347656 216.851562 435.792969 218.453125 433.523438 218.808594 C 433.949219 219.363281 434.371094 219.945312 434.746094 220.453125 L 438.347656 225.503906 Z M 434.769531 225.503906 "/>
<path style=" stroke:none;fill-rule:nonzero;fill:rgb(13.729858%,12.159729%,12.548828%);fill-opacity:1;" d="M 452.972656 218.875 C 452.753906 218.875 452.019531 218.875 451.703125 218.898438 L 451.703125 223.101562 C 452.0625 223.144531 452.617188 223.1875 453.285156 223.1875 C 455.175781 223.1875 456.132812 222.300781 456.132812 220.941406 C 456.132812 219.476562 454.867188 218.875 452.972656 218.875 M 453.394531 212.738281 C 452.796875 212.738281 452.21875 212.761719 451.703125 212.785156 L 451.703125 216.695312 C 452.0625 216.71875 452.417969 216.71875 452.886719 216.71875 C 454.867188 216.71875 455.886719 215.917969 455.886719 214.582031 C 455.886719 213.472656 455.21875 212.738281 453.394531 212.738281 M 453.195312 225.546875 C 452.285156 225.546875 450.707031 225.503906 448.816406 225.503906 L 448.816406 210.515625 C 450.085938 210.449219 452.039062 210.402344 453.886719 210.402344 C 457.132812 210.402344 458.933594 211.714844 458.933594 214.117188 C 458.933594 215.605469 457.976562 216.917969 456.554688 217.472656 L 456.554688 217.519531 C 458.335938 217.898438 459.222656 219.363281 459.222656 220.878906 C 459.222656 223.058594 457.730469 225.546875 453.195312 225.546875 "/>
<path style=" stroke:none;fill-rule:nonzero;fill:rgb(13.729858%,12.159729%,12.548828%);fill-opacity:1;" d="M 462.21875 210.492188 L 465.109375 210.492188 L 465.109375 225.503906 L 462.21875 225.503906 Z M 462.21875 210.492188 "/>
<path style=" stroke:none;fill-rule:nonzero;fill:rgb(13.729858%,12.159729%,12.548828%);fill-opacity:1;" d="M 468.980469 225.503906 L 468.980469 210.492188 L 471.867188 210.492188 L 471.867188 222.96875 L 476.738281 222.96875 L 476.738281 225.503906 Z M 468.980469 225.503906 "/>
<path style=" stroke:none;fill-rule:nonzero;fill:rgb(13.729858%,12.159729%,12.548828%);fill-opacity:1;" d="M 483.496094 212.828125 C 482.828125 212.828125 482.207031 212.847656 481.738281 212.894531 L 481.738281 223.011719 C 482.140625 223.078125 482.738281 223.121094 483.316406 223.121094 C 486.140625 223.121094 488.183594 221.519531 488.183594 217.964844 C 488.183594 214.738281 486.917969 212.828125 483.496094 212.828125 M 483.027344 225.589844 C 481.472656 225.589844 480.113281 225.523438 478.847656 225.480469 L 478.847656 210.515625 C 480.027344 210.46875 481.851562 210.402344 483.695312 210.402344 C 488.34375 210.402344 491.300781 212.472656 491.300781 217.742188 C 491.300781 222.902344 487.921875 225.589844 483.027344 225.589844 "/>
<path style=" stroke:none;fill-rule:nonzero;fill:rgb(13.729858%,12.159729%,12.548828%);fill-opacity:1;" d="M 499.8125 225.746094 C 495.074219 225.746094 494.007812 223.167969 494.007812 220.296875 L 494.007812 210.492188 L 496.898438 210.492188 L 496.898438 220.121094 C 496.898438 222.011719 497.519531 223.34375 500.011719 223.34375 C 502.234375 223.34375 503.167969 222.410156 503.167969 219.855469 L 503.167969 210.492188 L 506.039062 210.492188 L 506.039062 219.675781 C 506.039062 223.789062 503.769531 225.746094 499.8125 225.746094 "/>
<path style=" stroke:none;fill-rule:nonzero;fill:rgb(13.729858%,12.159729%,12.548828%);fill-opacity:1;" d="M 518.484375 225.503906 L 514.078125 217.917969 C 513.414062 216.785156 512.902344 215.675781 512.457031 214.695312 C 512.546875 215.984375 512.59375 218.339844 512.59375 220.144531 L 512.59375 225.503906 L 509.789062 225.503906 L 509.789062 210.492188 L 513.546875 210.492188 L 517.726562 217.652344 C 518.417969 218.808594 519.015625 220.054688 519.574219 221.1875 C 519.460938 219.675781 519.417969 217.007812 519.417969 215.164062 L 519.417969 210.492188 L 522.21875 210.492188 L 522.21875 225.503906 Z M 518.484375 225.503906 "/>
<path style=" stroke:none;fill-rule:nonzero;fill:rgb(13.729858%,12.159729%,12.548828%);fill-opacity:1;" d="M 537.113281 213.605469 C 535.910156 213.136719 534.535156 212.847656 533.132812 212.847656 C 530.175781 212.847656 528.042969 214.71875 528.042969 218.074219 C 528.042969 221.253906 529.777344 223.121094 532.820312 223.121094 C 533.535156 223.121094 534.15625 223.035156 534.734375 222.855469 L 534.734375 217.628906 L 537.625 217.628906 L 537.625 224.789062 C 536.136719 225.390625 534.289062 225.722656 532.488281 225.722656 C 527.730469 225.722656 524.90625 222.921875 524.90625 218.339844 C 524.90625 213.628906 528.109375 210.269531 533.3125 210.269531 C 534.800781 210.269531 536.269531 210.539062 537.558594 210.914062 Z M 537.113281 213.605469 "/>
</g>
</svg>
