<?xml version="1.0" encoding="UTF-8"?>
<svg xmlns="http://www.w3.org/2000/svg" xmlns:xlink="http://www.w3.org/1999/xlink" width="491.0559pt" height="164.91667pt" viewBox="0 0 491.0559 164.91667" version="1.1">
<g id="surface1">
<path style=" stroke:none;fill-rule:nonzero;fill:rgb(13.729858%,12.159729%,12.548828%);fill-opacity:1;" d="M 153.246094 125.070312 C 145.695312 125.070312 144.089844 120.738281 144.089844 116.105469 L 144.089844 99.484375 L 147.972656 99.484375 L 147.972656 115.804688 C 147.972656 119.167969 149.042969 121.707031 153.492188 121.707031 C 157.414062 121.707031 159.191406 119.988281 159.191406 115.285156 L 159.191406 99.484375 L 163.003906 99.484375 L 163.003906 114.984375 C 163.003906 121.707031 159.546875 125.070312 153.246094 125.070312 "/>
<path style=" stroke:none;fill-rule:nonzero;fill:rgb(13.729858%,12.159729%,12.548828%);fill-opacity:1;" d="M 180.304688 124.695312 L 180.304688 113.628906 C 180.304688 111.484375 179.714844 110.242188 177.742188 110.242188 C 175.152344 110.242188 173.25 112.972656 173.25 116.398438 L 173.25 124.695312 L 169.550781 124.695312 L 169.550781 107.511719 L 173.074219 107.511719 C 173.074219 108.410156 173.007812 109.894531 172.835938 110.863281 L 172.867188 110.898438 C 173.871094 108.6875 175.945312 107.164062 178.851562 107.164062 C 182.757812 107.164062 183.96875 109.617188 183.96875 112.660156 L 183.96875 124.695312 Z M 180.304688 124.695312 "/>
<path style=" stroke:none;fill-rule:nonzero;fill:rgb(13.729858%,12.159729%,12.548828%);fill-opacity:1;" d="M 190.402344 107.511719 L 194.101562 107.511719 L 194.101562 124.695312 L 190.402344 124.695312 Z M 192.265625 104.949219 C 190.953125 104.949219 189.882812 103.914062 189.882812 102.632812 C 189.882812 101.355469 190.953125 100.316406 192.265625 100.316406 C 193.546875 100.316406 194.617188 101.320312 194.617188 102.632812 C 194.617188 103.914062 193.546875 104.949219 192.265625 104.949219 "/>
<path style=" stroke:none;fill-rule:nonzero;fill:rgb(13.729858%,12.159729%,12.548828%);fill-opacity:1;" d="M 208.242188 124.695312 L 204.472656 124.695312 L 198.042969 107.511719 L 202.121094 107.511719 L 205.335938 116.605469 C 205.753906 117.78125 206.132812 118.988281 206.445312 120.132812 L 206.476562 120.132812 C 206.753906 119.058594 207.101562 117.847656 207.480469 116.742188 L 210.765625 107.511719 L 214.742188 107.511719 Z M 208.242188 124.695312 "/>
<path style=" stroke:none;fill-rule:nonzero;fill:rgb(13.729858%,12.159729%,12.548828%);fill-opacity:1;" d="M 225.015625 109.894531 C 222.9375 109.894531 221.488281 111.417969 221.175781 113.734375 L 228.472656 113.734375 C 228.539062 111.382812 227.191406 109.894531 225.015625 109.894531 M 232.066406 116.328125 L 221.105469 116.328125 C 221.003906 120.304688 222.765625 122.101562 226.191406 122.101562 C 227.953125 122.101562 229.785156 121.6875 231.203125 120.996094 L 231.550781 123.933594 C 229.820312 124.660156 227.710938 125.042969 225.601562 125.042969 C 220.242188 125.042969 217.300781 122.273438 217.300781 116.222656 C 217.300781 111.039062 220.136719 107.164062 225.152344 107.164062 C 230.0625 107.164062 232.171875 110.519531 232.171875 114.597656 C 232.171875 115.082031 232.136719 115.671875 232.066406 116.328125 "/>
<path style=" stroke:none;fill-rule:nonzero;fill:rgb(13.729858%,12.159729%,12.548828%);fill-opacity:1;" d="M 246.175781 110.796875 C 242.753906 110.171875 241.09375 112.558594 241.09375 117.710938 L 241.09375 124.695312 L 237.394531 124.695312 L 237.394531 107.511719 L 240.921875 107.511719 C 240.921875 108.476562 240.816406 110 240.574219 111.3125 L 240.644531 111.3125 C 241.40625 108.996094 243.132812 106.851562 246.347656 107.164062 Z M 246.175781 110.796875 "/>
<path style=" stroke:none;fill-rule:nonzero;fill:rgb(13.729858%,12.159729%,12.548828%);fill-opacity:1;" d="M 253.542969 125.042969 C 252.261719 125.042969 250.984375 124.902344 249.910156 124.695312 L 250.015625 121.550781 C 251.085938 121.859375 252.433594 122.101562 253.75 122.101562 C 255.753906 122.101562 257.136719 121.238281 257.136719 119.820312 C 257.136719 116.363281 249.601562 118.4375 249.601562 112.488281 C 249.601562 109.515625 252.019531 107.164062 256.6875 107.164062 C 257.691406 107.164062 258.867188 107.300781 259.902344 107.476562 L 259.800781 110.484375 C 258.765625 110.171875 257.554688 110 256.445312 110 C 254.40625 110 253.402344 110.832031 253.402344 112.144531 C 253.402344 115.464844 261.011719 113.769531 261.011719 119.476562 C 261.011719 122.691406 258.140625 125.042969 253.542969 125.042969 "/>
<path style=" stroke:none;fill-rule:nonzero;fill:rgb(13.729858%,12.159729%,12.548828%);fill-opacity:1;" d="M 266.300781 107.511719 L 270 107.511719 L 270 124.695312 L 266.300781 124.695312 Z M 268.171875 104.949219 C 266.855469 104.949219 265.78125 103.914062 265.78125 102.632812 C 265.78125 101.355469 266.855469 100.316406 268.171875 100.316406 C 269.449219 100.316406 270.519531 101.320312 270.519531 102.632812 C 270.519531 103.914062 269.449219 104.949219 268.171875 104.949219 "/>
<path style=" stroke:none;fill-rule:nonzero;fill:rgb(13.729858%,12.159729%,12.548828%);fill-opacity:1;" d="M 282.625 125 C 278.957031 125 277.851562 123.613281 277.851562 119.851562 L 277.851562 110.667969 L 274.566406 110.667969 L 274.566406 107.855469 L 277.851562 107.855469 L 277.851562 102.503906 L 281.515625 101.519531 L 281.515625 107.855469 L 286.046875 107.855469 L 286.046875 110.667969 L 281.550781 110.667969 L 281.550781 118.734375 C 281.550781 121.238281 282.070312 121.917969 283.796875 121.917969 C 284.558594 121.917969 285.390625 121.816406 286.046875 121.648438 L 286.046875 124.628906 C 285.042969 124.832031 283.765625 125 282.625 125 "/>
<path style=" stroke:none;fill-rule:nonzero;fill:rgb(13.729858%,12.159729%,12.548828%);fill-opacity:1;" d="M 300.671875 104.257812 C 299.496094 104.257812 298.5625 103.328125 298.5625 102.152344 C 298.5625 101.007812 299.496094 100.074219 300.671875 100.074219 C 301.816406 100.074219 302.75 101.007812 302.75 102.152344 C 302.75 103.328125 301.816406 104.257812 300.671875 104.257812 M 299.980469 116.914062 C 294.585938 116.914062 293.410156 118.539062 293.410156 120.027344 C 293.410156 121.308594 294.308594 122.136719 295.761719 122.136719 C 298.289062 122.136719 299.980469 119.714844 299.980469 117.261719 Z M 293.863281 104.257812 C 292.683594 104.257812 291.789062 103.328125 291.789062 102.152344 C 291.789062 101.007812 292.683594 100.074219 293.863281 100.074219 C 295.035156 100.074219 295.96875 101.007812 295.96875 102.152344 C 295.96875 103.328125 295.035156 104.257812 293.863281 104.257812 M 300.222656 124.695312 C 300.222656 123.589844 300.257812 122.449219 300.398438 121.515625 L 300.363281 121.480469 C 299.53125 123.519531 297.386719 125.042969 294.65625 125.042969 C 291.71875 125.042969 289.851562 123.382812 289.851562 120.648438 C 289.851562 116.707031 293.792969 114.425781 299.980469 114.425781 L 299.980469 113.320312 C 299.980469 111.175781 299.082031 110.070312 296.386719 110.070312 C 294.792969 110.070312 292.722656 110.550781 291.265625 111.453125 L 290.921875 108.304688 C 292.617188 107.648438 294.757812 107.164062 296.972656 107.164062 C 302.230469 107.164062 303.679688 109.445312 303.679688 112.972656 L 303.679688 119.992188 C 303.679688 121.480469 303.714844 123.246094 303.785156 124.695312 Z M 300.222656 124.695312 "/>
<path style=" stroke:none;fill-rule:nonzero;fill:rgb(13.729858%,12.159729%,12.548828%);fill-opacity:1;" d="M 315.683594 125 C 312.015625 125 310.910156 123.613281 310.910156 119.851562 L 310.910156 110.667969 L 307.625 110.667969 L 307.625 107.855469 L 310.910156 107.855469 L 310.910156 102.503906 L 314.574219 101.519531 L 314.574219 107.855469 L 319.105469 107.855469 L 319.105469 110.667969 L 314.609375 110.667969 L 314.609375 118.734375 C 314.609375 121.238281 315.125 121.917969 316.855469 121.917969 C 317.617188 121.917969 318.449219 121.816406 319.105469 121.648438 L 319.105469 124.628906 C 318.101562 124.832031 316.824219 125 315.683594 125 "/>
<path style=" stroke:none;fill-rule:nonzero;fill:rgb(13.729858%,12.159729%,12.548828%);fill-opacity:1;" d="M 353.898438 124.695312 L 353.898438 113.378906 L 342.535156 113.378906 L 342.535156 124.695312 L 338.652344 124.695312 L 338.652344 99.484375 L 342.535156 99.484375 L 342.535156 109.90625 L 353.898438 109.90625 L 353.898438 99.484375 L 357.742188 99.484375 L 357.742188 124.695312 Z M 353.898438 124.695312 "/>
<path style=" stroke:none;fill-rule:nonzero;fill:rgb(13.729858%,12.159729%,12.548828%);fill-opacity:1;" d="M 374.667969 116.914062 C 369.273438 116.914062 368.101562 118.539062 368.101562 120.027344 C 368.101562 121.308594 369 122.136719 370.449219 122.136719 C 372.972656 122.136719 374.667969 119.714844 374.667969 117.261719 Z M 374.910156 124.695312 C 374.910156 123.589844 374.945312 122.449219 375.085938 121.515625 L 375.046875 121.480469 C 374.21875 123.519531 372.074219 125.042969 369.34375 125.042969 C 366.402344 125.042969 364.535156 123.382812 364.535156 120.648438 C 364.535156 116.707031 368.480469 114.425781 374.667969 114.425781 L 374.667969 113.320312 C 374.667969 111.175781 373.769531 110.070312 371.074219 110.070312 C 369.480469 110.070312 367.40625 110.554688 365.957031 111.453125 L 365.609375 108.304688 C 367.300781 107.648438 369.449219 107.164062 371.660156 107.164062 C 376.914062 107.164062 378.371094 109.445312 378.371094 112.972656 L 378.371094 119.992188 C 378.371094 121.480469 378.40625 123.242188 378.472656 124.695312 Z M 374.910156 124.695312 "/>
<path style=" stroke:none;fill-rule:nonzero;fill:rgb(13.729858%,12.159729%,12.548828%);fill-opacity:1;" d="M 406.347656 124.695312 L 406.347656 113.734375 C 406.347656 111.589844 405.828125 110.242188 403.855469 110.242188 C 401.640625 110.242188 399.429688 112.695312 399.429688 116.464844 L 399.429688 124.695312 L 395.796875 124.695312 L 395.796875 113.699219 C 395.796875 111.761719 395.382812 110.242188 393.308594 110.242188 C 390.957031 110.242188 388.914062 112.867188 388.914062 116.464844 L 388.914062 124.695312 L 385.214844 124.695312 L 385.214844 107.511719 L 388.746094 107.511719 C 388.746094 108.410156 388.675781 109.859375 388.5 110.863281 L 388.570312 110.898438 C 389.574219 108.617188 391.71875 107.164062 394.378906 107.164062 C 397.769531 107.164062 398.875 109.34375 399.152344 110.863281 C 399.878906 109.203125 401.78125 107.164062 404.894531 107.164062 C 408.179688 107.164062 410.007812 108.929688 410.007812 112.835938 L 410.007812 124.695312 Z M 406.347656 124.695312 "/>
<path style=" stroke:none;fill-rule:nonzero;fill:rgb(13.729858%,12.159729%,12.548828%);fill-opacity:1;" d="M 424.394531 110.242188 C 421.628906 110.242188 420.140625 113.457031 420.140625 116.363281 L 420.140625 121.6875 C 420.902344 121.929688 421.765625 122.035156 422.839844 122.035156 C 425.777344 122.035156 427.785156 120.234375 427.785156 115.601562 C 427.785156 112.144531 426.710938 110.242188 424.394531 110.242188 M 422.5625 124.972656 C 420.140625 124.972656 418.308594 124.730469 416.441406 124.246094 L 416.441406 99.453125 L 420.140625 99.453125 L 420.140625 107.371094 C 420.140625 108.375 420.039062 109.757812 419.828125 110.65625 L 419.898438 110.65625 C 420.800781 108.511719 422.839844 107.164062 425.363281 107.164062 C 429.445312 107.164062 431.691406 110.070312 431.691406 115.257812 C 431.691406 121.203125 428.269531 124.972656 422.5625 124.972656 "/>
<path style=" stroke:none;fill-rule:nonzero;fill:rgb(13.729858%,12.159729%,12.548828%);fill-opacity:1;" d="M 448.355469 124.695312 C 448.355469 123.796875 448.425781 122.308594 448.601562 121.34375 L 448.566406 121.308594 C 447.5625 123.519531 445.488281 125.042969 442.582031 125.042969 C 438.675781 125.042969 437.464844 122.585938 437.464844 119.542969 L 437.464844 107.511719 L 441.132812 107.511719 L 441.132812 118.574219 C 441.132812 120.71875 441.71875 121.964844 443.691406 121.964844 C 446.28125 121.964844 448.1875 119.230469 448.1875 115.808594 L 448.1875 107.511719 L 451.886719 107.511719 L 451.886719 124.695312 Z M 448.355469 124.695312 "/>
<path style=" stroke:none;fill-rule:nonzero;fill:rgb(13.729858%,12.159729%,12.548828%);fill-opacity:1;" d="M 468.140625 110.796875 C 464.714844 110.171875 463.054688 112.558594 463.054688 117.710938 L 463.054688 124.695312 L 459.355469 124.695312 L 459.355469 107.511719 L 462.882812 107.511719 C 462.882812 108.476562 462.78125 110 462.535156 111.3125 L 462.605469 111.3125 C 463.367188 108.996094 465.09375 106.851562 468.308594 107.164062 Z M 468.140625 110.796875 "/>
<path style=" stroke:none;fill-rule:nonzero;fill:rgb(13.729858%,12.159729%,12.548828%);fill-opacity:1;" d="M 480.308594 109.894531 C 477.855469 109.894531 476.402344 111.382812 476.402344 113.492188 C 476.402344 115.742188 477.789062 117.054688 480.277344 117.054688 C 482.59375 117.054688 484.113281 115.773438 484.113281 113.527344 C 484.113281 111.246094 482.695312 109.894531 480.308594 109.894531 M 482.039062 124.972656 L 478.824219 124.972656 C 478.511719 124.972656 478.167969 124.972656 477.890625 124.9375 C 476.714844 125.59375 475.988281 126.632812 475.988281 127.808594 C 475.988281 129.640625 477.71875 130.679688 480.207031 130.679688 C 483.421875 130.679688 485.222656 129.292969 485.222656 127.425781 C 485.222656 125.941406 484.21875 124.972656 482.039062 124.972656 M 479.617188 133.546875 C 475.125 133.546875 472.324219 131.816406 472.324219 128.5 C 472.324219 126.5625 473.601562 124.9375 475.089844 124.175781 C 474.050781 123.660156 473.394531 122.757812 473.394531 121.617188 C 473.394531 120.375 474.15625 119.199219 475.367188 118.679688 C 473.671875 117.746094 472.804688 115.980469 472.804688 113.839844 C 472.804688 110.207031 475.574219 107.164062 480.484375 107.164062 C 481.523438 107.164062 482.386719 107.300781 483.320312 107.507812 L 489.128906 107.507812 L 489.128906 110.414062 L 486.5 110.414062 C 487.226562 111.003906 487.675781 112.039062 487.675781 113.285156 C 487.675781 117.019531 485.082031 119.648438 480.242188 119.648438 C 479.585938 119.648438 478.789062 119.578125 478.269531 119.476562 C 477.578125 119.75 477.269531 120.269531 477.269531 120.753906 C 477.269531 121.617188 478.03125 121.964844 480.101562 121.964844 L 483.042969 121.964844 C 486.777344 121.964844 488.886719 123.726562 488.886719 126.945312 C 488.886719 130.609375 485.152344 133.546875 479.617188 133.546875 "/>
<path style=" stroke:none;fill-rule:nonzero;fill:rgb(92.939758%,10.978699%,14.118958%);fill-opacity:1;" d="M 4.953125 5.785156 L 123.472656 5.785156 L 123.472656 124.304688 L 4.953125 124.304688 Z M 4.953125 5.785156 "/>
<path style=" stroke:none;fill-rule:nonzero;fill:rgb(100%,100%,100%);fill-opacity:1;" d="M 81.148438 76.039062 L 82.839844 76.039062 L 81.996094 74.570312 L 82.839844 73.105469 L 81.148438 73.105469 L 80.300781 71.640625 L 79.453125 73.105469 L 77.761719 73.105469 L 78.609375 74.570312 L 77.761719 76.039062 L 79.453125 76.039062 L 80.300781 77.503906 Z M 81.148438 76.039062 "/>
<path style=" stroke:none;fill-rule:nonzero;fill:rgb(100%,100%,100%);fill-opacity:1;" d="M 107.640625 76.039062 L 109.335938 76.039062 L 108.488281 74.570312 L 109.335938 73.105469 L 107.640625 73.105469 L 106.796875 71.640625 L 105.949219 73.105469 L 104.257812 73.105469 L 105.101562 74.570312 L 104.257812 76.039062 L 105.949219 76.039062 L 106.796875 77.503906 Z M 107.640625 76.039062 "/>
<path style=" stroke:none;fill-rule:nonzero;fill:rgb(100%,100%,100%);fill-opacity:1;" d="M 88.894531 76.714844 L 88.894531 77.03125 L 87.039062 77.03125 L 87.039062 79.195312 L 89.128906 79.195312 L 89.128906 92.722656 L 84.316406 92.722656 L 84.316406 79.5 L 76.289062 79.5 L 76.289062 92.722656 L 73.664062 92.722656 L 73.664062 94.96875 L 113.433594 94.96875 L 113.433594 92.722656 L 110.808594 92.722656 L 110.808594 79.5 L 102.78125 79.5 L 102.78125 92.722656 L 97.96875 92.722656 L 97.96875 79.195312 L 100.054688 79.195312 L 100.054688 77.03125 L 98.203125 77.03125 C 98.085938 74.703125 96.925781 72.714844 94.5 72.175781 L 94.5 69.835938 L 96.238281 69.835938 L 96.238281 68.210938 L 94.5 68.210938 L 94.5 66.226562 L 92.597656 66.226562 L 92.597656 68.210938 L 90.859375 68.210938 L 90.859375 69.835938 L 92.597656 69.835938 L 92.597656 72.179688 C 90.453125 72.679688 88.894531 74.457031 88.894531 76.714844 "/>
<path style=" stroke:none;fill-rule:nonzero;fill:rgb(100%,100%,100%);fill-opacity:1;" d="M 93.550781 104.25 C 90.617188 104.25 88.238281 106.628906 88.238281 109.558594 L 88.144531 118.445312 L 71.457031 118.445312 C 73.9375 111.5625 75.582031 104.632812 76.09375 97.289062 L 111.003906 97.289062 C 111.515625 104.632812 113.160156 111.5625 115.640625 118.445312 L 98.949219 118.445312 L 98.855469 109.558594 C 98.855469 106.628906 96.480469 104.25 93.550781 104.25 "/>
<path style=" stroke:none;fill-rule:nonzero;fill:rgb(100%,100%,100%);fill-opacity:1;" d="M 56.554688 44.488281 L 51.800781 44.488281 L 51.800781 31.148438 L 37.90625 31.148438 L 37.90625 34.230469 C 37.90625 40.917969 33.949219 44.925781 26.21875 44.925781 C 18.28125 44.925781 14.53125 41.234375 14.53125 34.363281 L 14.53125 14.773438 L 19.328125 14.773438 L 19.328125 33.394531 C 19.328125 38.179688 21 40.964844 26.261719 40.964844 C 31.445312 40.964844 33.195312 38.179688 33.195312 33.394531 L 33.195312 14.773438 L 37.90625 14.773438 L 37.90625 27.054688 L 51.800781 27.054688 L 51.800781 14.773438 L 56.554688 14.773438 L 56.554688 27.054688 L 70.539062 27.054688 L 70.539062 14.773438 L 75.292969 14.773438 L 75.292969 44.488281 L 70.539062 44.488281 L 70.539062 31.148438 L 56.554688 31.148438 Z M 56.554688 44.488281 "/>
<path style=" stroke:none;fill-rule:nonzero;fill:rgb(13.729858%,12.159729%,12.548828%);fill-opacity:1;" d="M 9.109375 148.269531 C 8.4375 148.269531 7.8125 148.292969 7.34375 148.339844 L 7.34375 158.507812 C 7.746094 158.574219 8.347656 158.621094 8.929688 158.621094 C 11.769531 158.621094 13.824219 157.011719 13.824219 153.433594 C 13.824219 150.191406 12.550781 148.269531 9.109375 148.269531 M 8.640625 161.097656 C 7.074219 161.097656 5.710938 161.03125 4.4375 160.988281 L 4.4375 145.945312 C 5.621094 145.902344 7.453125 145.835938 9.308594 145.835938 C 13.980469 145.835938 16.953125 147.914062 16.953125 153.210938 C 16.953125 158.394531 13.558594 161.097656 8.640625 161.097656 "/>
<path style=" stroke:none;fill-rule:nonzero;fill:rgb(13.729858%,12.159729%,12.548828%);fill-opacity:1;" d="M 19.570312 161.011719 L 19.570312 145.921875 L 27.773438 145.921875 L 27.773438 148.359375 L 22.476562 148.359375 L 22.476562 152.070312 L 27.507812 152.070312 L 27.507812 154.441406 L 22.476562 154.441406 L 22.476562 158.53125 L 27.773438 158.53125 L 27.773438 161.011719 Z M 19.570312 161.011719 "/>
<path style=" stroke:none;fill-rule:nonzero;fill:rgb(13.729858%,12.159729%,12.548828%);fill-opacity:1;" d="M 34.859375 148.203125 C 34.433594 148.203125 34.011719 148.226562 33.71875 148.273438 L 33.71875 152.628906 C 33.921875 152.652344 34.324219 152.671875 34.769531 152.671875 C 36.515625 152.671875 37.585938 151.78125 37.585938 150.371094 C 37.585938 148.917969 36.695312 148.203125 34.859375 148.203125 M 38.035156 161.011719 L 33.832031 154.773438 L 33.71875 154.773438 L 33.71875 161.011719 L 30.816406 161.011719 L 30.816406 145.921875 C 32 145.859375 33.40625 145.835938 35.152344 145.835938 C 38.480469 145.835938 40.625 146.996094 40.625 150.082031 C 40.625 152.316406 39.0625 153.925781 36.78125 154.285156 C 37.207031 154.839844 37.632812 155.421875 38.011719 155.9375 L 41.632812 161.011719 Z M 38.035156 161.011719 "/>
<path style=" stroke:none;fill-rule:nonzero;fill:rgb(13.729858%,12.159729%,12.548828%);fill-opacity:1;" d="M 55.042969 148.445312 L 55.042969 152.316406 L 59.890625 152.316406 L 59.890625 154.695312 L 55.042969 154.695312 L 55.042969 161.011719 L 52.152344 161.011719 L 52.152344 146 L 60.179688 146 L 60.179688 148.445312 Z M 55.042969 148.445312 "/>
<path style=" stroke:none;fill-rule:nonzero;fill:rgb(13.729858%,12.159729%,12.548828%);fill-opacity:1;" d="M 69.007812 148.359375 C 66.9375 148.359375 65.027344 150.003906 65.027344 153.382812 C 65.027344 156.5625 66.269531 158.628906 68.960938 158.628906 C 70.917969 158.628906 73.007812 157.117188 73.007812 153.519531 C 73.007812 150.183594 71.585938 148.359375 69.007812 148.359375 M 68.761719 161.253906 C 64.179688 161.253906 61.933594 158.34375 61.933594 153.695312 C 61.933594 148.734375 65.25 145.753906 69.273438 145.753906 C 73.277344 145.753906 76.097656 148.15625 76.097656 153.292969 C 76.097656 158.253906 72.832031 161.253906 68.761719 161.253906 "/>
<path style=" stroke:none;fill-rule:nonzero;fill:rgb(13.729858%,12.159729%,12.548828%);fill-opacity:1;" d="M 82.742188 148.269531 C 82.320312 148.269531 81.898438 148.289062 81.609375 148.335938 L 81.609375 152.671875 C 81.808594 152.695312 82.210938 152.714844 82.65625 152.714844 C 84.390625 152.714844 85.457031 151.828125 85.457031 150.425781 C 85.457031 148.980469 84.566406 148.269531 82.742188 148.269531 M 85.902344 161.011719 L 81.722656 154.808594 L 81.609375 154.808594 L 81.609375 161.011719 L 78.71875 161.011719 L 78.71875 146 C 79.898438 145.933594 81.300781 145.910156 83.03125 145.910156 C 86.347656 145.910156 88.480469 147.070312 88.480469 150.136719 C 88.480469 152.359375 86.925781 153.960938 84.65625 154.316406 C 85.078125 154.871094 85.5 155.453125 85.878906 155.960938 L 89.480469 161.011719 Z M 85.902344 161.011719 "/>
<path style=" stroke:none;fill-rule:nonzero;fill:rgb(13.729858%,12.159729%,12.548828%);fill-opacity:1;" d="M 94.390625 161.253906 C 93.324219 161.253906 92.257812 161.144531 91.324219 160.898438 L 91.5 158.210938 C 92.34375 158.496094 93.546875 158.742188 94.636719 158.742188 C 96.101562 158.742188 97.238281 158.144531 97.238281 156.761719 C 97.238281 153.894531 90.945312 155.207031 90.945312 150.269531 C 90.945312 147.601562 93.054688 145.753906 96.660156 145.753906 C 97.503906 145.753906 98.484375 145.867188 99.371094 146.023438 L 99.214844 148.558594 C 98.371094 148.3125 97.4375 148.15625 96.527344 148.15625 C 94.859375 148.15625 94.011719 148.914062 94.011719 149.980469 C 94.011719 152.671875 100.328125 151.671875 100.328125 156.363281 C 100.328125 159.1875 98.082031 161.253906 94.390625 161.253906 "/>
<path style=" stroke:none;fill-rule:nonzero;fill:rgb(13.729858%,12.159729%,12.548828%);fill-opacity:1;" d="M 109.351562 161.210938 C 104.105469 161.210938 102.414062 157.71875 102.414062 153.984375 C 102.414062 149.222656 104.90625 145.890625 109.929688 145.890625 C 111 145.890625 112.132812 146.023438 113.109375 146.289062 L 112.800781 148.914062 C 111.820312 148.625 110.796875 148.46875 109.777344 148.46875 C 106.972656 148.46875 105.59375 150.582031 105.59375 153.496094 C 105.59375 156.761719 106.953125 158.585938 109.976562 158.585938 C 110.886719 158.585938 112.109375 158.320312 112.886719 157.964844 L 113.222656 160.542969 C 112.109375 160.941406 110.753906 161.210938 109.351562 161.210938 "/>
<path style=" stroke:none;fill-rule:nonzero;fill:rgb(13.729858%,12.159729%,12.548828%);fill-opacity:1;" d="M 125.449219 161.011719 L 125.449219 154.496094 L 119.085938 154.496094 L 119.085938 161.011719 L 116.199219 161.011719 L 116.199219 146 L 119.085938 146 L 119.085938 152.003906 L 125.449219 152.003906 L 125.449219 146 L 128.339844 146 L 128.339844 161.011719 Z M 125.449219 161.011719 "/>
<path style=" stroke:none;fill-rule:nonzero;fill:rgb(13.729858%,12.159729%,12.548828%);fill-opacity:1;" d="M 137.984375 161.253906 C 133.246094 161.253906 132.179688 158.675781 132.179688 155.808594 L 132.179688 146 L 135.070312 146 L 135.070312 155.628906 C 135.070312 157.519531 135.695312 158.855469 138.183594 158.855469 C 140.40625 158.855469 141.34375 157.917969 141.34375 155.363281 L 141.34375 146 L 144.210938 146 L 144.210938 155.183594 C 144.210938 159.296875 141.941406 161.253906 137.984375 161.253906 "/>
<path style=" stroke:none;fill-rule:nonzero;fill:rgb(13.729858%,12.159729%,12.548828%);fill-opacity:1;" d="M 156.65625 161.011719 L 152.253906 153.425781 C 151.585938 152.292969 151.078125 151.183594 150.628906 150.203125 C 150.71875 151.492188 150.765625 153.847656 150.765625 155.652344 L 150.765625 161.011719 L 147.964844 161.011719 L 147.964844 146 L 151.722656 146 L 155.902344 153.164062 C 156.589844 154.316406 157.191406 155.5625 157.746094 156.695312 C 157.636719 155.183594 157.589844 152.515625 157.589844 150.671875 L 157.589844 146 L 160.394531 146 L 160.394531 161.011719 Z M 156.65625 161.011719 "/>
<path style=" stroke:none;fill-rule:nonzero;fill:rgb(13.729858%,12.159729%,12.548828%);fill-opacity:1;" d="M 175.289062 149.113281 C 174.085938 148.648438 172.707031 148.359375 171.308594 148.359375 C 168.347656 148.359375 166.214844 150.226562 166.214844 153.582031 C 166.214844 156.761719 167.949219 158.628906 170.996094 158.628906 C 171.707031 158.628906 172.328125 158.542969 172.90625 158.363281 L 172.90625 153.136719 L 175.796875 153.136719 L 175.796875 160.296875 C 174.308594 160.898438 172.464844 161.234375 170.664062 161.234375 C 165.902344 161.234375 163.078125 158.429688 163.078125 153.847656 C 163.078125 149.136719 166.28125 145.777344 171.484375 145.777344 C 172.972656 145.777344 174.441406 146.046875 175.734375 146.421875 Z M 175.289062 149.113281 "/>
<path style=" stroke:none;fill-rule:nonzero;fill:rgb(13.729858%,12.159729%,12.548828%);fill-opacity:1;" d="M 192.246094 145.4375 L 194.304688 145.4375 L 194.304688 162.867188 L 192.246094 162.867188 Z M 192.246094 145.4375 "/>
<path style=" stroke:none;fill-rule:nonzero;fill:rgb(13.729858%,12.159729%,12.548828%);fill-opacity:1;" d="M 215.175781 148.335938 C 214.507812 148.335938 213.886719 148.355469 213.417969 148.402344 L 213.417969 158.519531 C 213.820312 158.585938 214.417969 158.628906 214.996094 158.628906 C 217.824219 158.628906 219.867188 157.03125 219.867188 153.472656 C 219.867188 150.246094 218.601562 148.335938 215.175781 148.335938 M 214.707031 161.097656 C 213.152344 161.097656 211.796875 161.03125 210.527344 160.988281 L 210.527344 146.023438 C 211.707031 145.976562 213.53125 145.910156 215.375 145.910156 C 220.023438 145.910156 222.980469 147.980469 222.980469 153.25 C 222.980469 158.410156 219.601562 161.097656 214.707031 161.097656 "/>
<path style=" stroke:none;fill-rule:nonzero;fill:rgb(13.729858%,12.159729%,12.548828%);fill-opacity:1;" d="M 225.578125 161.011719 L 225.578125 146 L 233.738281 146 L 233.738281 148.425781 L 228.46875 148.425781 L 228.46875 152.117188 L 233.472656 152.117188 L 233.472656 154.472656 L 228.46875 154.472656 L 228.46875 158.542969 L 233.738281 158.542969 L 233.738281 161.011719 Z M 225.578125 161.011719 "/>
<path style=" stroke:none;fill-rule:nonzero;fill:rgb(13.729858%,12.159729%,12.548828%);fill-opacity:1;" d="M 240.785156 148.269531 C 240.363281 148.269531 239.9375 148.289062 239.652344 148.335938 L 239.652344 152.671875 C 239.851562 152.695312 240.25 152.714844 240.695312 152.714844 C 242.429688 152.714844 243.496094 151.828125 243.496094 150.425781 C 243.496094 148.980469 242.609375 148.269531 240.785156 148.269531 M 243.941406 161.011719 L 239.761719 154.808594 L 239.652344 154.808594 L 239.652344 161.011719 L 236.757812 161.011719 L 236.757812 146 C 237.9375 145.933594 239.339844 145.910156 241.074219 145.910156 C 244.386719 145.910156 246.523438 147.070312 246.523438 150.136719 C 246.523438 152.359375 244.964844 153.960938 242.695312 154.316406 C 243.121094 154.871094 243.542969 155.453125 243.921875 155.960938 L 247.523438 161.011719 Z M 243.941406 161.011719 "/>
<path style=" stroke:none;fill-rule:nonzero;fill:rgb(13.729858%,12.159729%,12.548828%);fill-opacity:1;" d="M 257.988281 161.011719 L 257.988281 146 L 260.878906 146 L 260.878906 158.476562 L 265.75 158.476562 L 265.75 161.011719 Z M 257.988281 161.011719 "/>
<path style=" stroke:none;fill-rule:nonzero;fill:rgb(13.729858%,12.159729%,12.548828%);fill-opacity:1;" d="M 267.859375 161.011719 L 267.859375 146 L 276.019531 146 L 276.019531 148.425781 L 270.75 148.425781 L 270.75 152.117188 L 275.753906 152.117188 L 275.753906 154.472656 L 270.75 154.472656 L 270.75 158.542969 L 276.019531 158.542969 L 276.019531 161.011719 Z M 267.859375 161.011719 "/>
<path style=" stroke:none;fill-rule:nonzero;fill:rgb(13.729858%,12.159729%,12.548828%);fill-opacity:1;" d="M 288.402344 161.011719 L 288.402344 154.496094 L 282.042969 154.496094 L 282.042969 161.011719 L 279.152344 161.011719 L 279.152344 146 L 282.042969 146 L 282.042969 152.003906 L 288.402344 152.003906 L 288.402344 146 L 291.292969 146 L 291.292969 161.011719 Z M 288.402344 161.011719 "/>
<path style=" stroke:none;fill-rule:nonzero;fill:rgb(13.729858%,12.159729%,12.548828%);fill-opacity:1;" d="M 299.207031 148.269531 C 298.78125 148.269531 298.359375 148.289062 298.070312 148.335938 L 298.070312 152.671875 C 298.269531 152.695312 298.671875 152.714844 299.113281 152.714844 C 300.851562 152.714844 301.917969 151.828125 301.917969 150.425781 C 301.917969 148.980469 301.027344 148.269531 299.207031 148.269531 M 302.363281 161.011719 L 298.183594 154.808594 L 298.070312 154.808594 L 298.070312 161.011719 L 295.179688 161.011719 L 295.179688 146 C 296.359375 145.933594 297.761719 145.910156 299.492188 145.910156 C 302.808594 145.910156 304.941406 147.070312 304.941406 150.136719 C 304.941406 152.359375 303.386719 153.960938 301.117188 154.316406 C 301.539062 154.871094 301.960938 155.453125 302.339844 155.960938 L 305.941406 161.011719 Z M 302.363281 161.011719 "/>
<path style=" stroke:none;fill-rule:nonzero;fill:rgb(13.729858%,12.159729%,12.548828%);fill-opacity:1;" d="M 308.273438 161.011719 L 308.273438 146 L 316.433594 146 L 316.433594 148.425781 L 311.164062 148.425781 L 311.164062 152.117188 L 316.167969 152.117188 L 316.167969 154.472656 L 311.164062 154.472656 L 311.164062 158.542969 L 316.433594 158.542969 L 316.433594 161.011719 Z M 308.273438 161.011719 "/>
<path style=" stroke:none;fill-rule:nonzero;fill:rgb(13.729858%,12.159729%,12.548828%);fill-opacity:1;" d="M 332.640625 145.4375 L 334.695312 145.4375 L 334.695312 162.867188 L 332.640625 162.867188 Z M 332.640625 145.4375 "/>
<path style=" stroke:none;fill-rule:nonzero;fill:rgb(13.729858%,12.159729%,12.548828%);fill-opacity:1;" d="M 355.148438 148.335938 C 354.480469 148.335938 353.859375 148.355469 353.390625 148.402344 L 353.390625 158.519531 C 353.792969 158.585938 354.390625 158.628906 354.96875 158.628906 C 357.792969 158.628906 359.839844 157.03125 359.839844 153.472656 C 359.839844 150.246094 358.570312 148.335938 355.148438 148.335938 M 354.679688 161.097656 C 353.125 161.097656 351.769531 161.03125 350.5 160.988281 L 350.5 146.023438 C 351.679688 145.976562 353.503906 145.910156 355.347656 145.910156 C 359.996094 145.910156 362.953125 147.980469 362.953125 153.25 C 362.953125 158.410156 359.574219 161.097656 354.679688 161.097656 "/>
<path style=" stroke:none;fill-rule:nonzero;fill:rgb(13.729858%,12.159729%,12.548828%);fill-opacity:1;" d="M 365.550781 161.011719 L 365.550781 146 L 373.710938 146 L 373.710938 148.425781 L 368.4375 148.425781 L 368.4375 152.117188 L 373.445312 152.117188 L 373.445312 154.472656 L 368.4375 154.472656 L 368.4375 158.542969 L 373.710938 158.542969 L 373.710938 161.011719 Z M 365.550781 161.011719 "/>
<path style=" stroke:none;fill-rule:nonzero;fill:rgb(13.729858%,12.159729%,12.548828%);fill-opacity:1;" d="M 380.757812 148.269531 C 380.332031 148.269531 379.910156 148.289062 379.621094 148.335938 L 379.621094 152.671875 C 379.824219 152.695312 380.222656 152.714844 380.667969 152.714844 C 382.402344 152.714844 383.46875 151.828125 383.46875 150.425781 C 383.46875 148.980469 382.582031 148.269531 380.757812 148.269531 M 383.917969 161.011719 L 379.734375 154.808594 L 379.621094 154.808594 L 379.621094 161.011719 L 376.730469 161.011719 L 376.730469 146 C 377.910156 145.933594 379.3125 145.910156 381.042969 145.910156 C 384.359375 145.910156 386.492188 147.070312 386.492188 150.136719 C 386.492188 152.359375 384.9375 153.960938 382.667969 154.316406 C 383.09375 154.871094 383.515625 155.453125 383.890625 155.960938 L 387.496094 161.011719 Z M 383.917969 161.011719 "/>
<path style=" stroke:none;fill-rule:nonzero;fill:rgb(13.729858%,12.159729%,12.548828%);fill-opacity:1;" d="M 402.121094 154.382812 C 401.898438 154.382812 401.164062 154.382812 400.851562 154.40625 L 400.851562 158.609375 C 401.207031 158.652344 401.761719 158.699219 402.429688 158.699219 C 404.320312 158.699219 405.277344 157.808594 405.277344 156.453125 C 405.277344 154.984375 404.011719 154.382812 402.121094 154.382812 M 402.542969 148.246094 C 401.941406 148.246094 401.363281 148.269531 400.851562 148.292969 L 400.851562 152.203125 C 401.207031 152.226562 401.5625 152.226562 402.03125 152.226562 C 404.011719 152.226562 405.03125 151.425781 405.03125 150.089844 C 405.03125 148.980469 404.363281 148.246094 402.542969 148.246094 M 402.339844 161.054688 C 401.429688 161.054688 399.851562 161.011719 397.960938 161.011719 L 397.960938 146.023438 C 399.230469 145.957031 401.1875 145.910156 403.03125 145.910156 C 406.277344 145.910156 408.082031 147.222656 408.082031 149.625 C 408.082031 151.113281 407.125 152.425781 405.699219 152.980469 L 405.699219 153.027344 C 407.480469 153.40625 408.367188 154.871094 408.367188 156.386719 C 408.367188 158.566406 406.878906 161.054688 402.339844 161.054688 "/>
<path style=" stroke:none;fill-rule:nonzero;fill:rgb(13.729858%,12.159729%,12.548828%);fill-opacity:1;" d="M 411.363281 146 L 414.253906 146 L 414.253906 161.011719 L 411.363281 161.011719 Z M 411.363281 146 "/>
<path style=" stroke:none;fill-rule:nonzero;fill:rgb(13.729858%,12.159729%,12.548828%);fill-opacity:1;" d="M 418.125 161.011719 L 418.125 146 L 421.015625 146 L 421.015625 158.476562 L 425.882812 158.476562 L 425.882812 161.011719 Z M 418.125 161.011719 "/>
<path style=" stroke:none;fill-rule:nonzero;fill:rgb(13.729858%,12.159729%,12.548828%);fill-opacity:1;" d="M 432.640625 148.335938 C 431.976562 148.335938 431.351562 148.355469 430.882812 148.402344 L 430.882812 158.519531 C 431.285156 158.585938 431.882812 158.628906 432.464844 158.628906 C 435.285156 158.628906 437.332031 157.03125 437.332031 153.472656 C 437.332031 150.246094 436.066406 148.335938 432.640625 148.335938 M 432.175781 161.097656 C 430.617188 161.097656 429.261719 161.03125 427.996094 160.988281 L 427.996094 146.023438 C 429.171875 145.976562 430.996094 145.910156 432.839844 145.910156 C 437.488281 145.910156 440.445312 147.980469 440.445312 153.25 C 440.445312 158.410156 437.066406 161.097656 432.175781 161.097656 "/>
<path style=" stroke:none;fill-rule:nonzero;fill:rgb(13.729858%,12.159729%,12.548828%);fill-opacity:1;" d="M 448.957031 161.253906 C 444.222656 161.253906 443.152344 158.675781 443.152344 155.808594 L 443.152344 146 L 446.042969 146 L 446.042969 155.628906 C 446.042969 157.519531 446.667969 158.855469 449.160156 158.855469 C 451.378906 158.855469 452.316406 157.917969 452.316406 155.363281 L 452.316406 146 L 455.183594 146 L 455.183594 155.183594 C 455.183594 159.296875 452.917969 161.253906 448.957031 161.253906 "/>
<path style=" stroke:none;fill-rule:nonzero;fill:rgb(13.729858%,12.159729%,12.548828%);fill-opacity:1;" d="M 467.628906 161.011719 L 463.226562 153.425781 C 462.558594 152.292969 462.046875 151.183594 461.601562 150.203125 C 461.691406 151.492188 461.738281 153.847656 461.738281 155.652344 L 461.738281 161.011719 L 458.933594 161.011719 L 458.933594 146 L 462.691406 146 L 466.871094 153.164062 C 467.5625 154.316406 468.164062 155.5625 468.71875 156.695312 C 468.609375 155.183594 468.566406 152.515625 468.566406 150.671875 L 468.566406 146 L 471.363281 146 L 471.363281 161.011719 Z M 467.628906 161.011719 "/>
<path style=" stroke:none;fill-rule:nonzero;fill:rgb(13.729858%,12.159729%,12.548828%);fill-opacity:1;" d="M 486.257812 149.113281 C 485.058594 148.648438 483.679688 148.359375 482.28125 148.359375 C 479.320312 148.359375 477.1875 150.226562 477.1875 153.582031 C 477.1875 156.761719 478.921875 158.628906 481.96875 158.628906 C 482.679688 158.628906 483.300781 158.542969 483.878906 158.363281 L 483.878906 153.136719 L 486.769531 153.136719 L 486.769531 160.296875 C 485.28125 160.898438 483.433594 161.234375 481.636719 161.234375 C 476.875 161.234375 474.050781 158.429688 474.050781 153.847656 C 474.050781 149.136719 477.253906 145.777344 482.457031 145.777344 C 483.945312 145.777344 485.414062 146.046875 486.707031 146.421875 Z M 486.257812 149.113281 "/>
</g>
</svg>
