<?xml version="1.0" encoding="UTF-8"?>
<svg xmlns="http://www.w3.org/2000/svg" xmlns:xlink="http://www.w3.org/1999/xlink" width="198.47pt" height="45.36pt" viewBox="0 0 198.47 45.36" version="1.1">
<g id="surface1">
<path style=" stroke:none;fill-rule:nonzero;fill:rgb(13.725281%,12.156677%,12.548828%);fill-opacity:1;" d="M 1.917969 4.5 L 1.917969 6.179688 L 4.621094 6.179688 L 4.621094 7.679688 L 1.917969 7.679688 L 1.917969 10.738281 L 0 10.738281 L 0 2.941406 L 4.800781 2.941406 L 4.800781 4.5 Z M 1.917969 4.5 "/>
<path style=" stroke:none;fill-rule:nonzero;fill:rgb(13.725281%,12.156677%,12.548828%);fill-opacity:1;" d="M 10.320312 5.699219 C 10.261719 5.519531 10.199219 5.339844 10.140625 5.160156 C 10.078125 4.980469 10.019531 4.800781 9.960938 4.621094 C 9.898438 4.800781 9.898438 4.980469 9.839844 5.160156 C 9.78125 5.339844 9.71875 5.519531 9.660156 5.699219 L 8.820312 7.980469 L 11.101562 7.980469 Z M 12.058594 10.738281 L 11.578125 9.421875 L 8.398438 9.421875 L 7.917969 10.738281 L 6 10.738281 L 8.820312 2.941406 L 11.339844 2.941406 L 14.160156 10.738281 Z M 12.058594 10.738281 "/>
<path style=" stroke:none;fill-rule:nonzero;fill:rgb(13.725281%,12.156677%,12.548828%);fill-opacity:1;" d="M 20.878906 10.738281 L 18.300781 7.199219 L 18.300781 10.738281 L 16.320312 10.738281 L 16.320312 2.941406 L 18.300781 2.941406 L 18.300781 6.300781 L 20.820312 2.941406 L 23.160156 2.941406 L 20.21875 6.660156 L 23.398438 10.738281 Z M 20.878906 10.738281 "/>
<path style=" stroke:none;fill-rule:nonzero;fill:rgb(13.725281%,12.156677%,12.548828%);fill-opacity:1;" d="M 32.359375 7.738281 C 32.359375 8.21875 32.300781 8.640625 32.117188 9 C 32 9.359375 31.757812 9.71875 31.460938 9.960938 C 31.160156 10.261719 30.800781 10.5 30.320312 10.679688 C 29.839844 10.800781 29.300781 10.921875 28.699219 10.921875 C 27.558594 10.921875 26.660156 10.621094 26.058594 10.140625 C 25.519531 9.601562 25.199219 8.878906 25.199219 7.980469 L 25.199219 2.941406 L 27.140625 2.941406 L 27.140625 7.558594 C 27.140625 8.160156 27.257812 8.578125 27.558594 8.878906 C 27.859375 9.121094 28.277344 9.300781 28.820312 9.300781 C 29.417969 9.300781 29.839844 9.121094 30.078125 8.820312 C 30.320312 8.519531 30.5 8.101562 30.5 7.5 L 30.5 2.941406 L 32.359375 2.941406 Z M 32.359375 7.738281 "/>
<path style=" stroke:none;fill-rule:nonzero;fill:rgb(13.725281%,12.156677%,12.548828%);fill-opacity:1;" d="M 35.539062 10.738281 L 35.539062 2.941406 L 37.460938 2.941406 L 37.460938 9.121094 L 40.039062 9.121094 L 40.039062 10.738281 Z M 35.539062 10.738281 "/>
<path style=" stroke:none;fill-rule:nonzero;fill:rgb(13.725281%,12.156677%,12.548828%);fill-opacity:1;" d="M 44.839844 4.558594 L 44.839844 10.738281 L 42.917969 10.738281 L 42.917969 4.558594 L 40.878906 4.558594 L 40.878906 2.941406 L 46.878906 2.941406 L 46.878906 4.558594 Z M 44.839844 4.558594 "/>
<path style=" stroke:none;fill-rule:nonzero;fill:rgb(13.725281%,12.156677%,12.548828%);fill-opacity:1;" d="M 54.199219 1.019531 C 54.199219 1.320312 54.078125 1.558594 53.898438 1.800781 C 53.660156 1.980469 53.417969 2.101562 53.179688 2.101562 C 52.878906 2.101562 52.640625 1.980469 52.398438 1.800781 C 52.21875 1.558594 52.097656 1.320312 52.097656 1.019531 C 52.097656 0.71875 52.21875 0.480469 52.398438 0.300781 C 52.640625 0.121094 52.878906 0 53.179688 0 C 53.417969 0 53.660156 0.121094 53.898438 0.300781 C 54.078125 0.480469 54.199219 0.71875 54.199219 1.019531 Z M 51.859375 5.699219 C 51.800781 5.519531 51.738281 5.339844 51.679688 5.160156 C 51.617188 4.980469 51.558594 4.800781 51.5 4.621094 C 51.4375 4.800781 51.4375 4.980469 51.378906 5.160156 C 51.320312 5.339844 51.257812 5.519531 51.199219 5.699219 L 50.359375 7.980469 L 52.640625 7.980469 Z M 51.140625 1.019531 C 51.140625 1.320312 51.019531 1.558594 50.839844 1.800781 C 50.660156 1.980469 50.417969 2.101562 50.117188 2.101562 C 49.820312 2.101562 49.578125 1.980469 49.339844 1.800781 C 49.160156 1.558594 49.097656 1.320312 49.097656 1.019531 C 49.097656 0.71875 49.160156 0.480469 49.339844 0.300781 C 49.578125 0.121094 49.820312 0 50.117188 0 C 50.417969 0 50.660156 0.121094 50.839844 0.300781 C 51.019531 0.480469 51.140625 0.71875 51.140625 1.019531 Z M 53.597656 10.738281 L 53.117188 9.421875 L 49.9375 9.421875 L 49.460938 10.738281 L 47.539062 10.738281 L 50.359375 2.941406 L 52.878906 2.941406 L 55.757812 10.738281 Z M 53.597656 10.738281 "/>
<path style=" stroke:none;fill-rule:nonzero;fill:rgb(13.725281%,12.156677%,12.548828%);fill-opacity:1;" d="M 60.316406 4.558594 L 60.316406 10.738281 L 58.398438 10.738281 L 58.398438 4.558594 L 56.359375 4.558594 L 56.359375 2.941406 L 62.359375 2.941406 L 62.359375 4.558594 Z M 60.316406 4.558594 "/>
<path style=" stroke:none;fill-rule:nonzero;fill:rgb(14.117432%,52.549744%,70.980835%);fill-opacity:1;" d="M 1.5 20.359375 L 1.5 22.878906 L 4.378906 22.878906 L 4.378906 23.78125 L 1.5 23.78125 L 1.5 27.261719 L 0.359375 27.261719 L 0.359375 19.460938 L 4.621094 19.460938 L 4.621094 20.359375 Z M 1.5 20.359375 "/>
<path style=" stroke:none;fill-rule:nonzero;fill:rgb(14.117432%,52.549744%,70.980835%);fill-opacity:1;" d="M 12.539062 17.421875 C 12.539062 17.601562 12.480469 17.78125 12.359375 17.960938 C 12.238281 18.078125 12.058594 18.140625 11.878906 18.140625 C 11.640625 18.140625 11.519531 18.078125 11.339844 17.960938 C 11.21875 17.78125 11.160156 17.601562 11.160156 17.421875 C 11.160156 17.238281 11.21875 17.058594 11.339844 16.941406 C 11.519531 16.761719 11.640625 16.699219 11.878906 16.699219 C 12.058594 16.699219 12.238281 16.761719 12.359375 16.941406 C 12.480469 17.058594 12.539062 17.238281 12.539062 17.421875 Z M 9.71875 17.421875 C 9.71875 17.601562 9.660156 17.78125 9.539062 17.960938 C 9.417969 18.078125 9.238281 18.140625 9.058594 18.140625 C 8.820312 18.140625 8.699219 18.078125 8.519531 17.960938 C 8.398438 17.78125 8.339844 17.601562 8.339844 17.421875 C 8.339844 17.238281 8.398438 17.058594 8.519531 16.941406 C 8.699219 16.761719 8.820312 16.699219 9.058594 16.699219 C 9.238281 16.699219 9.417969 16.761719 9.539062 16.941406 C 9.660156 17.058594 9.71875 17.238281 9.71875 17.421875 Z M 13.738281 24.320312 C 13.738281 24.738281 13.621094 25.160156 13.5 25.519531 C 13.378906 25.878906 13.199219 26.179688 12.898438 26.480469 C 12.660156 26.78125 12.300781 27.019531 11.878906 27.140625 C 11.398438 27.320312 10.921875 27.378906 10.320312 27.378906 C 9.300781 27.378906 8.519531 27.140625 7.980469 26.660156 C 7.378906 26.179688 7.140625 25.519531 7.140625 24.621094 L 7.140625 19.460938 L 8.28125 19.460938 L 8.28125 24.441406 C 8.28125 25.160156 8.460938 25.640625 8.820312 26 C 9.179688 26.300781 9.71875 26.480469 10.441406 26.480469 C 10.800781 26.480469 11.160156 26.421875 11.398438 26.300781 C 11.699219 26.179688 11.941406 26.058594 12.121094 25.878906 C 12.238281 25.699219 12.359375 25.460938 12.480469 25.160156 C 12.539062 24.921875 12.601562 24.621094 12.601562 24.261719 L 12.601562 19.460938 L 13.738281 19.460938 Z M 13.738281 24.320312 "/>
<path style=" stroke:none;fill-rule:nonzero;fill:rgb(14.117432%,52.549744%,70.980835%);fill-opacity:1;" d="M 20.878906 21.679688 C 20.878906 21.261719 20.757812 20.960938 20.460938 20.660156 C 20.160156 20.421875 19.738281 20.300781 19.078125 20.300781 C 18.898438 20.300781 18.71875 20.300781 18.539062 20.300781 C 18.359375 20.300781 18.238281 20.300781 18.179688 20.359375 L 18.179688 23.121094 C 18.300781 23.121094 18.421875 23.121094 18.539062 23.121094 C 18.71875 23.121094 18.898438 23.121094 19.078125 23.121094 C 19.617188 23.121094 20.097656 23 20.398438 22.761719 C 20.757812 22.519531 20.878906 22.160156 20.878906 21.679688 Z M 21.179688 27.261719 L 18.777344 23.960938 L 18.179688 23.960938 L 18.179688 27.261719 L 17.039062 27.261719 L 17.039062 19.460938 C 17.21875 19.460938 17.519531 19.460938 17.878906 19.460938 C 18.300781 19.460938 18.71875 19.460938 19.199219 19.460938 C 20.097656 19.460938 20.820312 19.640625 21.300781 20 C 21.839844 20.359375 22.078125 20.898438 22.078125 21.621094 C 22.078125 21.921875 22.019531 22.21875 21.960938 22.460938 C 21.839844 22.699219 21.660156 22.941406 21.480469 23.121094 C 21.300781 23.300781 21.058594 23.421875 20.820312 23.539062 C 20.519531 23.660156 20.277344 23.71875 19.980469 23.78125 C 20.097656 23.898438 20.21875 24.019531 20.339844 24.140625 C 20.398438 24.320312 20.519531 24.441406 20.640625 24.621094 L 22.617188 27.261719 Z M 21.179688 27.261719 "/>
<path style=" stroke:none;fill-rule:nonzero;fill:rgb(14.117432%,52.549744%,70.980835%);fill-opacity:1;" d="M 37.339844 27.261719 L 36.617188 22.640625 C 36.558594 22.28125 36.5 21.921875 36.4375 21.5 C 36.378906 21.140625 36.320312 20.78125 36.320312 20.480469 L 36.257812 20.480469 C 36.199219 20.78125 36.140625 21.078125 36.078125 21.320312 C 35.960938 21.558594 35.898438 21.800781 35.839844 22.039062 L 33.859375 27.261719 L 32.777344 27.261719 L 30.917969 22.339844 C 30.800781 21.980469 30.679688 21.621094 30.558594 21.320312 C 30.4375 20.960938 30.378906 20.71875 30.320312 20.480469 C 30.257812 20.78125 30.199219 21.140625 30.199219 21.558594 C 30.140625 21.921875 30.078125 22.339844 30.019531 22.699219 L 29.300781 27.261719 L 28.160156 27.261719 L 29.539062 19.460938 L 31.039062 19.460938 L 32.898438 24.320312 C 32.960938 24.558594 33.078125 24.800781 33.140625 25.101562 C 33.199219 25.339844 33.320312 25.578125 33.320312 25.820312 L 33.378906 25.820312 C 33.4375 25.578125 33.5 25.339844 33.558594 25.101562 C 33.617188 24.800781 33.738281 24.558594 33.800781 24.320312 L 35.660156 19.460938 L 37.21875 19.460938 L 38.539062 27.261719 Z M 37.339844 27.261719 "/>
<path style=" stroke:none;fill-rule:nonzero;fill:rgb(14.117432%,52.549744%,70.980835%);fill-opacity:1;" d="M 44.058594 21.859375 C 43.878906 21.378906 43.820312 21.078125 43.757812 20.960938 C 43.699219 20.839844 43.640625 20.71875 43.640625 20.601562 L 43.578125 20.601562 C 43.578125 20.71875 43.519531 20.898438 43.460938 21.078125 C 43.398438 21.261719 43.277344 21.5 43.160156 21.859375 L 42.078125 24.679688 L 45.140625 24.679688 Z M 46.097656 27.261719 L 45.4375 25.519531 L 41.777344 25.519531 L 41.117188 27.261719 L 39.917969 27.261719 L 42.980469 19.460938 L 44.359375 19.460938 L 47.359375 27.261719 Z M 46.097656 27.261719 "/>
<path style=" stroke:none;fill-rule:nonzero;fill:rgb(14.117432%,52.549744%,70.980835%);fill-opacity:1;" d="M 51.140625 20.421875 L 51.140625 27.261719 L 49.9375 27.261719 L 49.9375 20.421875 L 47.660156 20.421875 L 47.660156 19.460938 L 53.480469 19.460938 L 53.480469 20.421875 Z M 51.140625 20.421875 "/>
<path style=" stroke:none;fill-rule:nonzero;fill:rgb(14.117432%,52.549744%,70.980835%);fill-opacity:1;" d="M 60.917969 27.261719 L 60.917969 23.71875 L 56.71875 23.71875 L 56.71875 27.261719 L 55.578125 27.261719 L 55.578125 19.460938 L 56.71875 19.460938 L 56.71875 22.761719 L 60.917969 22.761719 L 60.917969 19.460938 L 62.058594 19.460938 L 62.058594 27.261719 Z M 60.917969 27.261719 "/>
<path style=" stroke:none;fill-rule:nonzero;fill:rgb(14.117432%,52.549744%,70.980835%);fill-opacity:1;" d="M 65.417969 27.261719 L 65.417969 19.460938 L 69.796875 19.460938 L 69.796875 20.359375 L 66.558594 20.359375 L 66.558594 22.820312 L 69.496094 22.820312 L 69.496094 23.71875 L 66.558594 23.71875 L 66.558594 26.359375 L 69.796875 26.359375 L 69.796875 27.261719 Z M 65.417969 27.261719 "/>
<path style=" stroke:none;fill-rule:nonzero;fill:rgb(14.117432%,52.549744%,70.980835%);fill-opacity:1;" d="M 81.339844 27.261719 L 80.617188 22.640625 C 80.558594 22.28125 80.496094 21.921875 80.4375 21.5 C 80.378906 21.140625 80.316406 20.78125 80.316406 20.480469 L 80.257812 20.480469 C 80.199219 20.78125 80.136719 21.078125 80.078125 21.320312 C 79.957031 21.558594 79.898438 21.800781 79.839844 22.039062 L 77.859375 27.261719 L 76.777344 27.261719 L 74.898438 22.339844 C 74.777344 21.980469 74.65625 21.621094 74.539062 21.320312 C 74.417969 20.960938 74.359375 20.71875 74.296875 20.480469 C 74.238281 20.78125 74.179688 21.140625 74.179688 21.558594 C 74.117188 21.921875 74.058594 22.339844 73.996094 22.699219 L 73.277344 27.261719 L 72.136719 27.261719 L 73.519531 19.460938 L 75.019531 19.460938 L 76.898438 24.320312 C 76.957031 24.558594 77.078125 24.800781 77.136719 25.101562 C 77.199219 25.339844 77.316406 25.578125 77.316406 25.820312 L 77.378906 25.820312 C 77.4375 25.578125 77.496094 25.339844 77.558594 25.101562 C 77.617188 24.800781 77.738281 24.558594 77.796875 24.320312 L 79.65625 19.460938 L 81.21875 19.460938 L 82.539062 27.261719 Z M 81.339844 27.261719 "/>
<path style=" stroke:none;fill-rule:nonzero;fill:rgb(14.117432%,52.549744%,70.980835%);fill-opacity:1;" d="M 88.058594 21.859375 C 87.878906 21.378906 87.816406 21.078125 87.757812 20.960938 C 87.699219 20.839844 87.636719 20.71875 87.636719 20.601562 L 87.578125 20.601562 C 87.578125 20.71875 87.519531 20.898438 87.457031 21.078125 C 87.398438 21.261719 87.277344 21.5 87.15625 21.859375 L 86.078125 24.679688 L 89.136719 24.679688 Z M 90.097656 27.261719 L 89.4375 25.519531 L 85.777344 25.519531 L 85.117188 27.261719 L 83.917969 27.261719 L 86.976562 19.460938 L 88.359375 19.460938 L 91.359375 27.261719 Z M 90.097656 27.261719 "/>
<path style=" stroke:none;fill-rule:nonzero;fill:rgb(14.117432%,52.549744%,70.980835%);fill-opacity:1;" d="M 95.136719 20.421875 L 95.136719 27.261719 L 93.9375 27.261719 L 93.9375 20.421875 L 91.65625 20.421875 L 91.65625 19.460938 L 97.476562 19.460938 L 97.476562 20.421875 Z M 95.136719 20.421875 "/>
<path style=" stroke:none;fill-rule:nonzero;fill:rgb(14.117432%,52.549744%,70.980835%);fill-opacity:1;" d="M 99.578125 27.261719 L 100.71875 27.261719 L 100.71875 19.460938 L 99.578125 19.460938 Z M 99.578125 27.261719 "/>
<path style=" stroke:none;fill-rule:nonzero;fill:rgb(14.117432%,52.549744%,70.980835%);fill-opacity:1;" d="M 108.578125 27.261719 L 105.21875 23.421875 L 105.21875 27.261719 L 104.078125 27.261719 L 104.078125 19.460938 L 105.21875 19.460938 L 105.21875 23.179688 L 108.578125 19.460938 L 109.898438 19.460938 L 106.480469 23.238281 L 110.140625 27.261719 Z M 108.578125 27.261719 "/>
<path style=" stroke:none;fill-rule:nonzero;fill:rgb(14.117432%,52.549744%,70.980835%);fill-opacity:1;" d="M 112.480469 25.820312 C 112.78125 25.820312 112.960938 25.878906 113.078125 26.121094 C 113.261719 26.300781 113.320312 26.539062 113.320312 26.898438 C 113.320312 27.261719 113.140625 27.679688 112.898438 28.101562 C 112.660156 28.578125 112.300781 29 111.761719 29.480469 L 111.28125 29.058594 C 111.699219 28.578125 112 28.160156 112.058594 27.800781 C 112.179688 27.441406 112.121094 27.140625 111.941406 26.960938 C 111.878906 26.839844 111.820312 26.71875 111.820312 26.539062 C 111.761719 26.421875 111.820312 26.300781 111.878906 26.179688 C 111.941406 26.058594 112 26 112.121094 25.878906 C 112.238281 25.820312 112.359375 25.820312 112.480469 25.820312 Z M 112.480469 25.820312 "/>
<path style=" stroke:none;fill-rule:nonzero;fill:rgb(14.117432%,52.549744%,70.980835%);fill-opacity:1;" d="M 119.621094 27.261719 L 120.761719 27.261719 L 120.761719 19.460938 L 119.621094 19.460938 Z M 119.621094 27.261719 "/>
<path style=" stroke:none;fill-rule:nonzero;fill:rgb(14.117432%,52.549744%,70.980835%);fill-opacity:1;" d="M 129.421875 27.261719 L 126.339844 22.699219 C 126.101562 22.398438 125.921875 22.101562 125.679688 21.738281 C 125.5 21.378906 125.320312 21.078125 125.140625 20.839844 C 125.199219 21.199219 125.199219 21.621094 125.199219 22.101562 C 125.199219 22.519531 125.199219 23.058594 125.199219 23.660156 L 125.199219 27.261719 L 124.121094 27.261719 L 124.121094 19.460938 L 125.558594 19.460938 L 128.578125 23.898438 C 128.820312 24.261719 129 24.558594 129.238281 24.921875 C 129.421875 25.28125 129.601562 25.519531 129.71875 25.761719 C 129.71875 25.398438 129.71875 25.039062 129.660156 24.558594 C 129.660156 24.078125 129.660156 23.539062 129.660156 22.941406 L 129.660156 19.460938 L 130.738281 19.460938 L 130.738281 27.261719 Z M 129.421875 27.261719 "/>
<path style=" stroke:none;fill-rule:nonzero;fill:rgb(14.117432%,52.549744%,70.980835%);fill-opacity:1;" d="M 135.300781 20.359375 L 135.300781 22.878906 L 138.179688 22.878906 L 138.179688 23.78125 L 135.300781 23.78125 L 135.300781 27.261719 L 134.101562 27.261719 L 134.101562 19.460938 L 138.421875 19.460938 L 138.421875 20.359375 Z M 135.300781 20.359375 "/>
<path style=" stroke:none;fill-rule:nonzero;fill:rgb(14.117432%,52.549744%,70.980835%);fill-opacity:1;" d="M 146.699219 23.421875 C 146.699219 22.460938 146.460938 21.679688 145.980469 21.140625 C 145.558594 20.539062 144.898438 20.300781 144.121094 20.300781 C 143.699219 20.300781 143.398438 20.359375 143.039062 20.480469 C 142.738281 20.601562 142.5 20.839844 142.261719 21.078125 C 142.019531 21.320312 141.839844 21.679688 141.71875 22.039062 C 141.601562 22.460938 141.480469 22.878906 141.480469 23.359375 C 141.480469 24.320312 141.71875 25.039062 142.199219 25.640625 C 142.621094 26.179688 143.28125 26.480469 144.058594 26.480469 C 144.480469 26.480469 144.839844 26.359375 145.140625 26.238281 C 145.441406 26.121094 145.738281 25.941406 145.980469 25.640625 C 146.21875 25.398438 146.398438 25.101562 146.519531 24.679688 C 146.640625 24.320312 146.699219 23.898438 146.699219 23.421875 Z M 147.898438 23.300781 C 147.898438 23.898438 147.78125 24.441406 147.601562 24.980469 C 147.421875 25.460938 147.179688 25.941406 146.820312 26.300781 C 146.460938 26.660156 146.039062 26.898438 145.558594 27.140625 C 145.078125 27.320312 144.539062 27.441406 143.941406 27.441406 C 142.800781 27.441406 141.898438 27.078125 141.238281 26.359375 C 140.640625 25.699219 140.28125 24.738281 140.28125 23.480469 C 140.28125 22.878906 140.398438 22.28125 140.578125 21.800781 C 140.761719 21.261719 141.058594 20.839844 141.359375 20.480469 C 141.71875 20.121094 142.140625 19.820312 142.621094 19.640625 C 143.101562 19.460938 143.640625 19.339844 144.238281 19.339844 C 145.378906 19.339844 146.28125 19.699219 146.941406 20.359375 C 147.539062 21.078125 147.898438 22.039062 147.898438 23.300781 Z M 147.898438 23.300781 "/>
<path style=" stroke:none;fill-rule:nonzero;fill:rgb(14.117432%,52.549744%,70.980835%);fill-opacity:1;" d="M 154.261719 21.679688 C 154.261719 21.261719 154.140625 20.960938 153.839844 20.660156 C 153.539062 20.421875 153.121094 20.300781 152.519531 20.300781 C 152.28125 20.300781 152.101562 20.300781 151.921875 20.300781 C 151.800781 20.300781 151.679688 20.300781 151.558594 20.359375 L 151.558594 23.121094 C 151.679688 23.121094 151.800781 23.121094 151.980469 23.121094 C 152.101562 23.121094 152.28125 23.121094 152.460938 23.121094 C 153.058594 23.121094 153.480469 23 153.839844 22.761719 C 154.140625 22.519531 154.261719 22.160156 154.261719 21.679688 Z M 154.558594 27.261719 L 152.160156 23.960938 L 151.558594 23.960938 L 151.558594 27.261719 L 150.421875 27.261719 L 150.421875 19.460938 C 150.601562 19.460938 150.898438 19.460938 151.320312 19.460938 C 151.679688 19.460938 152.160156 19.460938 152.578125 19.460938 C 153.480469 19.460938 154.199219 19.640625 154.738281 20 C 155.21875 20.359375 155.460938 20.898438 155.460938 21.621094 C 155.460938 21.921875 155.460938 22.21875 155.339844 22.460938 C 155.21875 22.699219 155.039062 22.941406 154.859375 23.121094 C 154.679688 23.300781 154.441406 23.421875 154.199219 23.539062 C 153.960938 23.660156 153.660156 23.71875 153.421875 23.78125 C 153.480469 23.898438 153.601562 24.019531 153.71875 24.140625 C 153.839844 24.320312 153.960938 24.441406 154.019531 24.621094 L 156 27.261719 Z M 154.558594 27.261719 "/>
<path style=" stroke:none;fill-rule:nonzero;fill:rgb(14.117432%,52.549744%,70.980835%);fill-opacity:1;" d="M 167.101562 27.261719 L 166.320312 22.640625 C 166.261719 22.28125 166.199219 21.921875 166.140625 21.5 C 166.078125 21.140625 166.078125 20.78125 166.019531 20.480469 C 165.960938 20.78125 165.839844 21.078125 165.78125 21.320312 C 165.71875 21.558594 165.660156 21.800781 165.539062 22.039062 L 163.621094 27.261719 L 162.480469 27.261719 L 160.679688 22.339844 C 160.5 21.980469 160.378906 21.621094 160.320312 21.320312 C 160.199219 20.960938 160.078125 20.71875 160.019531 20.480469 C 160.019531 20.78125 159.960938 21.140625 159.898438 21.558594 C 159.839844 21.921875 159.839844 22.339844 159.78125 22.699219 L 159.058594 27.261719 L 157.921875 27.261719 L 159.238281 19.460938 L 160.800781 19.460938 L 162.601562 24.320312 C 162.71875 24.558594 162.78125 24.800781 162.898438 25.101562 C 162.960938 25.339844 163.019531 25.578125 163.078125 25.820312 C 163.140625 25.578125 163.199219 25.339844 163.320312 25.101562 C 163.378906 24.800781 163.441406 24.558594 163.558594 24.320312 L 165.359375 19.460938 L 166.921875 19.460938 L 168.300781 27.261719 Z M 167.101562 27.261719 "/>
<path style=" stroke:none;fill-rule:nonzero;fill:rgb(14.117432%,52.549744%,70.980835%);fill-opacity:1;" d="M 173.820312 21.859375 C 173.640625 21.378906 173.519531 21.078125 173.460938 20.960938 C 173.460938 20.839844 173.398438 20.71875 173.339844 20.601562 C 173.28125 20.71875 173.21875 20.898438 173.160156 21.078125 C 173.101562 21.261719 173.039062 21.5 172.921875 21.859375 L 171.839844 24.679688 L 174.839844 24.679688 Z M 175.859375 27.261719 L 175.199219 25.519531 L 171.480469 25.519531 L 170.820312 27.261719 L 169.679688 27.261719 L 172.738281 19.460938 L 174.058594 19.460938 L 177.121094 27.261719 Z M 175.859375 27.261719 "/>
<path style=" stroke:none;fill-rule:nonzero;fill:rgb(14.117432%,52.549744%,70.980835%);fill-opacity:1;" d="M 180.859375 20.421875 L 180.859375 27.261719 L 179.71875 27.261719 L 179.71875 20.421875 L 177.359375 20.421875 L 177.359375 19.460938 L 183.199219 19.460938 L 183.199219 20.421875 Z M 180.859375 20.421875 "/>
<path style=" stroke:none;fill-rule:nonzero;fill:rgb(14.117432%,52.549744%,70.980835%);fill-opacity:1;" d="M 185.300781 27.261719 L 186.5 27.261719 L 186.5 19.460938 L 185.300781 19.460938 Z M 185.300781 27.261719 "/>
<path style=" stroke:none;fill-rule:nonzero;fill:rgb(14.117432%,52.549744%,70.980835%);fill-opacity:1;" d="M 194.351562 27.261719 L 190.988281 23.421875 L 190.988281 27.261719 L 189.789062 27.261719 L 189.789062 19.460938 L 190.988281 19.460938 L 190.988281 23.179688 L 194.289062 19.460938 L 195.671875 19.460938 L 192.191406 23.238281 L 195.851562 27.261719 Z M 194.351562 27.261719 "/>
<path style=" stroke:none;fill-rule:nonzero;fill:rgb(14.117432%,52.549744%,70.980835%);fill-opacity:1;" d="M 6.898438 40.839844 C 6.898438 41.261719 6.839844 41.679688 6.71875 42.039062 C 6.601562 42.398438 6.417969 42.699219 6.121094 43 C 5.820312 43.300781 5.519531 43.539062 5.039062 43.660156 C 4.621094 43.839844 4.140625 43.898438 3.539062 43.898438 C 2.519531 43.898438 1.679688 43.660156 1.140625 43.179688 C 0.601562 42.699219 0.359375 42.039062 0.359375 41.140625 L 0.359375 35.960938 L 1.5 35.960938 L 1.5 40.960938 C 1.5 41.679688 1.679688 42.160156 2.039062 42.519531 C 2.398438 42.820312 2.941406 43 3.660156 43 C 4.019531 43 4.378906 42.941406 4.621094 42.820312 C 4.917969 42.699219 5.101562 42.578125 5.28125 42.398438 C 5.460938 42.21875 5.578125 41.980469 5.699219 41.679688 C 5.761719 41.441406 5.820312 41.140625 5.820312 40.78125 L 5.820312 35.960938 L 6.898438 35.960938 Z M 6.898438 40.839844 "/>
<path style=" stroke:none;fill-rule:nonzero;fill:rgb(14.117432%,52.549744%,70.980835%);fill-opacity:1;" d="M 15.539062 43.78125 L 12.421875 39.199219 C 12.238281 38.898438 12 38.601562 11.820312 38.238281 C 11.578125 37.878906 11.398438 37.578125 11.28125 37.339844 C 11.28125 37.699219 11.28125 38.121094 11.28125 38.601562 C 11.339844 39.019531 11.339844 39.558594 11.339844 40.179688 L 11.339844 43.78125 L 10.261719 43.78125 L 10.261719 35.960938 L 11.640625 35.960938 L 14.640625 40.421875 C 14.878906 40.78125 15.121094 41.078125 15.300781 41.441406 C 15.539062 41.800781 15.660156 42.039062 15.78125 42.28125 L 15.839844 42.28125 C 15.78125 41.921875 15.78125 41.558594 15.78125 41.078125 C 15.78125 40.601562 15.78125 40.058594 15.78125 39.441406 L 15.71875 35.960938 L 16.859375 35.960938 L 16.859375 43.78125 Z M 15.539062 43.78125 "/>
<path style=" stroke:none;fill-rule:nonzero;fill:rgb(14.117432%,52.549744%,70.980835%);fill-opacity:1;" d="M 25.757812 39.878906 C 25.757812 37.878906 24.660156 36.859375 22.558594 36.859375 C 22.378906 36.859375 22.140625 36.859375 21.960938 36.859375 C 21.71875 36.859375 21.539062 36.859375 21.359375 36.917969 L 21.359375 42.878906 C 21.660156 42.878906 21.839844 42.878906 22.019531 42.878906 C 22.199219 42.878906 22.320312 42.878906 22.5 42.878906 C 22.980469 42.878906 23.398438 42.820312 23.820312 42.699219 C 24.179688 42.578125 24.539062 42.398438 24.839844 42.160156 C 25.140625 41.921875 25.320312 41.621094 25.519531 41.199219 C 25.640625 40.839844 25.757812 40.421875 25.757812 39.878906 Z M 26.960938 39.820312 C 26.960938 40.480469 26.839844 41.078125 26.597656 41.558594 C 26.359375 42.101562 26.058594 42.519531 25.640625 42.820312 C 25.199219 43.179688 24.71875 43.421875 24.179688 43.601562 C 23.640625 43.71875 22.980469 43.839844 22.320312 43.839844 C 22.019531 43.839844 21.660156 43.839844 21.179688 43.839844 C 20.699219 43.78125 20.398438 43.78125 20.21875 43.78125 L 20.21875 35.960938 C 20.398438 35.960938 20.820312 35.960938 21.417969 35.960938 C 21.960938 35.960938 22.4375 35.960938 22.738281 35.960938 C 23.398438 35.960938 24 36.019531 24.480469 36.199219 C 25.019531 36.320312 25.4375 36.558594 25.820312 36.859375 C 26.179688 37.160156 26.480469 37.578125 26.660156 38.058594 C 26.839844 38.539062 26.960938 39.140625 26.960938 39.820312 Z M 26.960938 39.820312 "/>
<path style=" stroke:none;fill-rule:nonzero;fill:rgb(14.117432%,52.549744%,70.980835%);fill-opacity:1;" d="M 38.359375 43.78125 L 35.300781 39.199219 C 35.058594 38.898438 34.878906 38.601562 34.640625 38.238281 C 34.460938 37.878906 34.277344 37.578125 34.097656 37.339844 C 34.160156 37.699219 34.160156 38.121094 34.160156 38.601562 C 34.160156 39.019531 34.160156 39.558594 34.160156 40.179688 L 34.160156 43.78125 L 33.078125 43.78125 L 33.078125 35.960938 L 34.519531 35.960938 L 37.519531 40.421875 C 37.757812 40.78125 37.9375 41.078125 38.179688 41.441406 C 38.359375 41.800781 38.539062 42.039062 38.660156 42.28125 C 38.660156 41.921875 38.660156 41.558594 38.597656 41.078125 C 38.597656 40.601562 38.597656 40.058594 38.597656 39.441406 L 38.597656 35.960938 L 39.679688 35.960938 L 39.679688 43.78125 Z M 38.359375 43.78125 "/>
<path style=" stroke:none;fill-rule:nonzero;fill:rgb(14.117432%,52.549744%,70.980835%);fill-opacity:1;" d="M 46.039062 38.359375 C 45.859375 37.878906 45.738281 37.578125 45.679688 37.460938 C 45.679688 37.339844 45.617188 37.21875 45.558594 37.101562 C 45.5 37.21875 45.4375 37.398438 45.378906 37.578125 C 45.320312 37.761719 45.257812 38 45.140625 38.359375 L 44.058594 41.199219 L 47.058594 41.199219 Z M 48.078125 43.78125 L 47.417969 42.039062 L 43.699219 42.039062 L 43.039062 43.78125 L 41.898438 43.78125 L 44.960938 35.960938 L 46.277344 35.960938 L 49.339844 43.78125 Z M 48.078125 43.78125 "/>
<path style=" stroke:none;fill-rule:nonzero;fill:rgb(14.117432%,52.549744%,70.980835%);fill-opacity:1;" d="M 53.058594 36.917969 L 53.058594 43.78125 L 51.917969 43.78125 L 51.917969 36.917969 L 49.578125 36.917969 L 49.578125 35.960938 L 55.398438 35.960938 L 55.398438 36.917969 Z M 53.058594 36.917969 "/>
<path style=" stroke:none;fill-rule:nonzero;fill:rgb(14.117432%,52.549744%,70.980835%);fill-opacity:1;" d="M 64.039062 40.839844 C 64.039062 41.261719 63.976562 41.679688 63.859375 42.039062 C 63.679688 42.398438 63.496094 42.699219 63.257812 43 C 62.957031 43.300781 62.597656 43.539062 62.179688 43.660156 C 61.757812 43.839844 61.21875 43.898438 60.679688 43.898438 C 59.597656 43.898438 58.816406 43.660156 58.277344 43.179688 C 57.738281 42.699219 57.4375 42.039062 57.4375 41.140625 L 57.4375 35.960938 L 58.578125 35.960938 L 58.578125 40.960938 C 58.578125 41.679688 58.757812 42.160156 59.117188 42.519531 C 59.539062 42.820312 60.019531 43 60.738281 43 C 61.15625 43 61.457031 42.941406 61.757812 42.820312 C 61.996094 42.699219 62.238281 42.578125 62.417969 42.398438 C 62.597656 42.21875 62.71875 41.980469 62.777344 41.679688 C 62.839844 41.441406 62.898438 41.140625 62.898438 40.78125 L 62.898438 35.960938 L 64.039062 35.960938 Z M 64.039062 40.839844 "/>
<path style=" stroke:none;fill-rule:nonzero;fill:rgb(14.117432%,52.549744%,70.980835%);fill-opacity:1;" d="M 71.179688 38.179688 C 71.179688 37.761719 71.058594 37.460938 70.757812 37.160156 C 70.457031 36.917969 70.039062 36.800781 69.4375 36.800781 C 69.199219 36.800781 69.019531 36.800781 68.839844 36.800781 C 68.71875 36.800781 68.597656 36.800781 68.476562 36.859375 L 68.476562 39.640625 C 68.597656 39.640625 68.71875 39.640625 68.898438 39.640625 C 69.078125 39.640625 69.199219 39.640625 69.378906 39.640625 C 69.976562 39.640625 70.398438 39.5 70.757812 39.261719 C 71.058594 39.019531 71.179688 38.660156 71.179688 38.179688 Z M 71.476562 43.78125 L 69.078125 40.480469 L 68.476562 40.480469 L 68.476562 43.78125 L 67.339844 43.78125 L 67.339844 35.960938 C 67.519531 35.960938 67.816406 35.960938 68.238281 35.960938 C 68.597656 35.960938 69.078125 35.960938 69.496094 35.960938 C 70.398438 35.960938 71.117188 36.140625 71.65625 36.5 C 72.136719 36.859375 72.378906 37.398438 72.378906 38.121094 C 72.378906 38.417969 72.378906 38.71875 72.257812 38.960938 C 72.136719 39.199219 71.957031 39.441406 71.777344 39.640625 C 71.597656 39.820312 71.359375 39.941406 71.117188 40.058594 C 70.878906 40.179688 70.578125 40.238281 70.339844 40.300781 C 70.398438 40.421875 70.519531 40.539062 70.636719 40.660156 C 70.757812 40.839844 70.878906 40.960938 70.9375 41.140625 L 72.917969 43.78125 Z M 71.476562 43.78125 "/>
<path style=" stroke:none;fill-rule:nonzero;fill:rgb(14.117432%,52.549744%,70.980835%);fill-opacity:1;" d="M 83.679688 43.78125 L 82.238281 43.78125 L 80.558594 39.019531 C 80.496094 38.78125 80.378906 38.539062 80.316406 38.238281 C 80.257812 38 80.136719 37.699219 80.078125 37.398438 C 79.957031 37.699219 79.898438 38 79.839844 38.238281 C 79.777344 38.539062 79.65625 38.839844 79.597656 39.078125 L 77.976562 43.78125 L 76.597656 43.78125 L 74.117188 35.960938 L 75.4375 35.960938 L 76.957031 40.960938 C 77.019531 41.320312 77.136719 41.679688 77.199219 41.921875 C 77.257812 42.160156 77.316406 42.398438 77.378906 42.640625 C 77.496094 42.28125 77.558594 41.921875 77.617188 41.679688 C 77.679688 41.441406 77.796875 41.199219 77.859375 40.898438 L 79.539062 35.960938 L 80.738281 35.960938 L 82.417969 40.898438 C 82.539062 41.140625 82.597656 41.441406 82.71875 41.738281 C 82.777344 42.101562 82.839844 42.339844 82.957031 42.640625 C 83.019531 42.339844 83.136719 41.980469 83.199219 41.738281 C 83.257812 41.441406 83.378906 41.199219 83.4375 40.898438 L 84.9375 35.960938 L 86.136719 35.960938 Z M 83.679688 43.78125 "/>
<path style=" stroke:none;fill-rule:nonzero;fill:rgb(14.117432%,52.549744%,70.980835%);fill-opacity:1;" d="M 88.417969 43.78125 L 89.558594 43.78125 L 89.558594 35.960938 L 88.417969 35.960938 Z M 88.417969 43.78125 "/>
<path style=" stroke:none;fill-rule:nonzero;fill:rgb(14.117432%,52.549744%,70.980835%);fill-opacity:1;" d="M 97.355469 41.558594 C 97.355469 41.921875 97.296875 42.21875 97.175781 42.460938 C 97.058594 42.761719 96.878906 43 96.578125 43.238281 C 96.335938 43.480469 95.976562 43.601562 95.617188 43.71875 C 95.195312 43.839844 94.777344 43.898438 94.238281 43.898438 C 93.9375 43.898438 93.578125 43.898438 93.21875 43.839844 C 92.855469 43.78125 92.558594 43.78125 92.316406 43.71875 L 92.4375 42.699219 C 92.738281 42.761719 93.035156 42.878906 93.398438 42.941406 C 93.695312 42.941406 94.058594 43 94.355469 43 C 94.71875 43 94.957031 42.941406 95.195312 42.878906 C 95.4375 42.820312 95.617188 42.761719 95.738281 42.640625 C 95.917969 42.519531 96.035156 42.339844 96.097656 42.21875 C 96.15625 42.039062 96.15625 41.859375 96.15625 41.679688 C 96.15625 41.378906 96.097656 41.199219 95.917969 41.019531 C 95.738281 40.839844 95.558594 40.71875 95.378906 40.660156 C 95.195312 40.539062 94.835938 40.421875 94.355469 40.238281 C 93.878906 40.058594 93.457031 39.878906 93.21875 39.699219 C 92.917969 39.5 92.679688 39.320312 92.496094 39.019531 C 92.316406 38.78125 92.257812 38.417969 92.257812 38.058594 C 92.257812 37.398438 92.496094 36.859375 92.976562 36.5 C 93.457031 36.078125 94.238281 35.839844 95.195312 35.839844 C 95.4375 35.839844 95.738281 35.898438 96.035156 35.898438 C 96.335938 35.960938 96.636719 35.960938 96.878906 36.019531 L 96.695312 36.980469 C 96.457031 36.917969 96.21875 36.859375 95.917969 36.859375 C 95.617188 36.800781 95.378906 36.800781 95.136719 36.800781 C 94.535156 36.800781 94.117188 36.859375 93.816406 37.101562 C 93.578125 37.28125 93.457031 37.578125 93.457031 37.941406 C 93.457031 38.179688 93.515625 38.417969 93.695312 38.601562 C 93.878906 38.78125 94.058594 38.898438 94.238281 38.960938 C 94.417969 39.019531 94.777344 39.199219 95.257812 39.378906 C 95.738281 39.558594 96.15625 39.761719 96.457031 39.941406 C 96.695312 40.058594 96.9375 40.300781 97.117188 40.601562 C 97.296875 40.839844 97.355469 41.199219 97.355469 41.558594 Z M 97.355469 41.558594 "/>
<path style=" stroke:none;fill-rule:nonzero;fill:rgb(14.117432%,52.549744%,70.980835%);fill-opacity:1;" d="M 104.679688 41.558594 C 104.679688 41.921875 104.621094 42.21875 104.441406 42.460938 C 104.320312 42.761719 104.140625 43 103.898438 43.238281 C 103.601562 43.480469 103.300781 43.601562 102.878906 43.71875 C 102.460938 43.839844 102.039062 43.898438 101.5 43.898438 C 101.199219 43.898438 100.839844 43.898438 100.480469 43.839844 C 100.121094 43.78125 99.816406 43.78125 99.578125 43.71875 L 99.695312 42.699219 C 99.996094 42.761719 100.300781 42.878906 100.660156 42.941406 C 100.960938 42.941406 101.320312 43 101.621094 43 C 101.980469 43 102.21875 42.941406 102.460938 42.878906 C 102.699219 42.820312 102.878906 42.761719 103.058594 42.640625 C 103.179688 42.519531 103.300781 42.339844 103.359375 42.21875 C 103.421875 42.039062 103.480469 41.859375 103.480469 41.679688 C 103.480469 41.378906 103.359375 41.199219 103.179688 41.019531 C 103 40.839844 102.820312 40.71875 102.640625 40.660156 C 102.460938 40.539062 102.101562 40.421875 101.621094 40.238281 C 101.140625 40.058594 100.71875 39.878906 100.480469 39.699219 C 100.179688 39.5 99.9375 39.320312 99.757812 39.019531 C 99.578125 38.78125 99.515625 38.417969 99.515625 38.058594 C 99.515625 37.398438 99.757812 36.859375 100.238281 36.5 C 100.78125 36.078125 101.5 35.839844 102.460938 35.839844 C 102.699219 35.839844 103 35.898438 103.300781 35.898438 C 103.601562 35.960938 103.898438 35.960938 104.140625 36.019531 L 103.960938 36.980469 C 103.71875 36.917969 103.480469 36.859375 103.179688 36.859375 C 102.878906 36.800781 102.640625 36.800781 102.398438 36.800781 C 101.800781 36.800781 101.378906 36.859375 101.078125 37.101562 C 100.839844 37.28125 100.71875 37.578125 100.71875 37.941406 C 100.71875 38.179688 100.78125 38.417969 100.960938 38.601562 C 101.140625 38.78125 101.320312 38.898438 101.5 38.960938 C 101.679688 39.019531 102.039062 39.199219 102.519531 39.378906 C 103.058594 39.558594 103.421875 39.761719 103.71875 39.941406 C 103.960938 40.058594 104.199219 40.300781 104.378906 40.601562 C 104.558594 40.839844 104.679688 41.199219 104.679688 41.558594 Z M 104.679688 41.558594 "/>
<path style=" stroke:none;fill-rule:nonzero;fill:rgb(14.117432%,52.549744%,70.980835%);fill-opacity:1;" d="M 107.378906 43.78125 L 107.378906 35.960938 L 111.761719 35.960938 L 111.761719 36.859375 L 108.519531 36.859375 L 108.519531 39.320312 L 111.460938 39.320312 L 111.460938 40.238281 L 108.519531 40.238281 L 108.519531 42.878906 L 111.761719 42.878906 L 111.761719 43.78125 Z M 107.378906 43.78125 "/>
<path style=" stroke:none;fill-rule:nonzero;fill:rgb(14.117432%,52.549744%,70.980835%);fill-opacity:1;" d="M 119.859375 43.78125 L 116.800781 39.199219 C 116.558594 38.898438 116.378906 38.601562 116.140625 38.238281 C 115.960938 37.878906 115.78125 37.578125 115.601562 37.339844 C 115.660156 37.699219 115.660156 38.121094 115.660156 38.601562 C 115.660156 39.019531 115.660156 39.558594 115.660156 40.179688 L 115.660156 43.78125 L 114.578125 43.78125 L 114.578125 35.960938 L 116.019531 35.960938 L 119.019531 40.421875 C 119.261719 40.78125 119.441406 41.078125 119.679688 41.441406 C 119.859375 41.800781 120.039062 42.039062 120.160156 42.28125 C 120.160156 41.921875 120.160156 41.558594 120.101562 41.078125 C 120.101562 40.601562 120.101562 40.058594 120.101562 39.441406 L 120.101562 35.960938 L 121.179688 35.960938 L 121.179688 43.78125 Z M 119.859375 43.78125 "/>
<path style=" stroke:none;fill-rule:nonzero;fill:rgb(14.117432%,52.549744%,70.980835%);fill-opacity:1;" d="M 129.058594 41.558594 C 129.058594 41.921875 129 42.21875 128.878906 42.460938 C 128.761719 42.761719 128.519531 43 128.28125 43.238281 C 127.980469 43.480469 127.679688 43.601562 127.238281 43.71875 C 126.878906 43.839844 126.398438 43.898438 125.859375 43.898438 C 125.558594 43.898438 125.261719 43.898438 124.898438 43.839844 C 124.539062 43.78125 124.238281 43.78125 123.941406 43.71875 L 124.121094 42.699219 C 124.359375 42.761719 124.71875 42.878906 125.019531 42.941406 C 125.378906 42.941406 125.679688 43 126.039062 43 C 126.339844 43 126.640625 42.941406 126.820312 42.878906 C 127.058594 42.820312 127.238281 42.761719 127.421875 42.640625 C 127.558594 42.519531 127.679688 42.339844 127.738281 42.21875 C 127.800781 42.039062 127.859375 41.859375 127.859375 41.679688 C 127.859375 41.378906 127.800781 41.199219 127.621094 41.019531 C 127.421875 40.839844 127.238281 40.71875 127 40.660156 C 126.820312 40.539062 126.519531 40.421875 125.980469 40.238281 C 125.5 40.058594 125.140625 39.878906 124.839844 39.699219 C 124.601562 39.5 124.359375 39.320312 124.179688 39.019531 C 124 38.78125 123.878906 38.417969 123.878906 38.058594 C 123.878906 37.398438 124.121094 36.859375 124.660156 36.5 C 125.140625 36.078125 125.859375 35.839844 126.820312 35.839844 C 127.121094 35.839844 127.359375 35.898438 127.679688 35.898438 C 128.039062 35.960938 128.28125 35.960938 128.519531 36.019531 L 128.398438 36.980469 C 128.160156 36.917969 127.859375 36.859375 127.558594 36.859375 C 127.300781 36.800781 127 36.800781 126.761719 36.800781 C 126.160156 36.800781 125.738281 36.859375 125.5 37.101562 C 125.199219 37.28125 125.078125 37.578125 125.078125 37.941406 C 125.078125 38.179688 125.140625 38.417969 125.320312 38.601562 C 125.5 38.78125 125.679688 38.898438 125.859375 38.960938 C 126.101562 39.019531 126.398438 39.199219 126.941406 39.378906 C 127.421875 39.558594 127.800781 39.761719 128.101562 39.941406 C 128.398438 40.058594 128.578125 40.300781 128.761719 40.601562 C 128.941406 40.839844 129.058594 41.199219 129.058594 41.558594 Z M 129.058594 41.558594 "/>
<path style=" stroke:none;fill-rule:nonzero;fill:rgb(14.117432%,52.549744%,70.980835%);fill-opacity:1;" d="M 137.039062 43.480469 C 136.738281 43.601562 136.378906 43.71875 136.019531 43.78125 C 135.601562 43.839844 135.179688 43.898438 134.761719 43.898438 C 133.558594 43.898438 132.660156 43.539062 132 42.878906 C 131.398438 42.21875 131.039062 41.261719 131.039062 40.058594 C 131.039062 39.441406 131.160156 38.898438 131.28125 38.417969 C 131.460938 37.878906 131.699219 37.460938 132 37.101562 C 132.359375 36.679688 132.78125 36.378906 133.261719 36.199219 C 133.800781 35.960938 134.398438 35.898438 135.058594 35.898438 C 135.421875 35.898438 135.71875 35.898438 136.078125 35.960938 C 136.441406 35.960938 136.738281 36.078125 136.980469 36.140625 L 136.800781 37.160156 C 136.5 37.039062 136.199219 36.980469 135.898438 36.917969 C 135.539062 36.859375 135.238281 36.859375 134.941406 36.859375 C 134.519531 36.859375 134.101562 36.917969 133.800781 37.039062 C 133.441406 37.21875 133.140625 37.460938 132.960938 37.699219 C 132.71875 38 132.539062 38.300781 132.421875 38.660156 C 132.359375 39.078125 132.300781 39.441406 132.300781 39.878906 C 132.300781 40.898438 132.539062 41.621094 132.960938 42.101562 C 133.441406 42.640625 134.101562 42.878906 135.058594 42.878906 C 135.359375 42.878906 135.660156 42.878906 136.019531 42.820312 C 136.320312 42.761719 136.621094 42.640625 136.859375 42.519531 Z M 137.039062 43.480469 "/>
<path style=" stroke:none;fill-rule:nonzero;fill:rgb(14.117432%,52.549744%,70.980835%);fill-opacity:1;" d="M 144.898438 43.78125 L 144.898438 40.238281 L 140.699219 40.238281 L 140.699219 43.78125 L 139.5 43.78125 L 139.5 35.960938 L 140.699219 35.960938 L 140.699219 39.261719 L 144.898438 39.261719 L 144.898438 35.960938 L 145.980469 35.960938 L 145.980469 43.78125 Z M 144.898438 43.78125 "/>
<path style=" stroke:none;fill-rule:nonzero;fill:rgb(14.117432%,52.549744%,70.980835%);fill-opacity:1;" d="M 152.339844 38.359375 C 152.160156 37.878906 152.039062 37.578125 152.039062 37.460938 C 151.980469 37.339844 151.921875 37.21875 151.859375 37.101562 C 151.800781 37.21875 151.738281 37.398438 151.679688 37.578125 C 151.621094 37.761719 151.558594 38 151.441406 38.359375 L 150.359375 41.199219 L 153.421875 41.199219 Z M 154.378906 43.78125 L 153.71875 42.039062 L 150.058594 42.039062 L 149.339844 43.78125 L 148.199219 43.78125 L 151.261719 35.960938 L 152.578125 35.960938 L 155.640625 43.78125 Z M 154.378906 43.78125 "/>
<path style=" stroke:none;fill-rule:nonzero;fill:rgb(14.117432%,52.549744%,70.980835%);fill-opacity:1;" d="M 158.941406 36.859375 L 158.941406 39.378906 L 161.878906 39.378906 L 161.878906 40.300781 L 158.941406 40.300781 L 158.941406 43.78125 L 157.800781 43.78125 L 157.800781 35.960938 L 162.058594 35.960938 L 162.058594 36.859375 Z M 158.941406 36.859375 "/>
<path style=" stroke:none;fill-rule:nonzero;fill:rgb(14.117432%,52.549744%,70.980835%);fill-opacity:1;" d="M 167.039062 36.917969 L 167.039062 43.78125 L 165.839844 43.78125 L 165.839844 36.917969 L 163.558594 36.917969 L 163.558594 35.960938 L 169.378906 35.960938 L 169.378906 36.917969 Z M 167.039062 36.917969 "/>
<path style=" stroke:none;fill-rule:nonzero;fill:rgb(14.117432%,52.549744%,70.980835%);fill-opacity:1;" d="M 171.480469 43.78125 L 171.480469 35.960938 L 175.859375 35.960938 L 175.859375 36.859375 L 172.621094 36.859375 L 172.621094 39.320312 L 175.558594 39.320312 L 175.558594 40.238281 L 172.621094 40.238281 L 172.621094 42.878906 L 175.859375 42.878906 L 175.859375 43.78125 Z M 171.480469 43.78125 "/>
<path style=" stroke:none;fill-rule:nonzero;fill:rgb(14.117432%,52.549744%,70.980835%);fill-opacity:1;" d="M 184.039062 43.78125 L 180.921875 39.199219 C 180.738281 38.898438 180.5 38.601562 180.320312 38.238281 C 180.078125 37.878906 179.898438 37.578125 179.78125 37.339844 L 179.71875 37.339844 C 179.78125 37.699219 179.78125 38.121094 179.78125 38.601562 C 179.78125 39.019531 179.78125 39.558594 179.78125 40.179688 L 179.839844 43.78125 L 178.699219 43.78125 L 178.699219 35.960938 L 180.140625 35.960938 L 183.140625 40.421875 C 183.378906 40.78125 183.558594 41.078125 183.800781 41.441406 C 183.980469 41.800781 184.160156 42.039062 184.28125 42.28125 L 184.339844 42.28125 C 184.28125 41.921875 184.28125 41.558594 184.28125 41.078125 C 184.28125 40.601562 184.21875 40.058594 184.21875 39.441406 L 184.21875 35.960938 L 185.359375 35.960938 L 185.359375 43.78125 Z M 184.039062 43.78125 "/>
</g>
</svg>
